<svg fill="none" height="40" viewBox="0 0 41 40" width="41" xmlns="http://www.w3.org/2000/svg"><g clip-rule="evenodd" fill-rule="evenodd"><path d="m33.8307 9.9987h-3.3333v-1.66667c0-1.32608-.5268-2.59785-1.4645-3.53553s-2.2094-1.46447-3.5355-1.46447h-10c-1.3261 0-2.5979.52679-3.5355 1.46447-.9377.93768-1.4645 2.20945-1.4645 3.53553v1.66667h-3.33334c-1.32608 0-2.59785.5268-3.53553 1.4645-.93768.9376-1.46447 2.2094-1.46447 3.5355v16.6667c0 1.3261.52679 2.5978 1.46447 3.5355s2.20945 1.4645 3.53553 1.4645h26.66664c1.3261 0 2.5979-.5268 3.5356-1.4645.9376-.9377 1.4644-2.2094 1.4644-3.5355v-16.6667c0-1.3261-.5268-2.5979-1.4644-3.5355-.9377-.9377-2.2095-1.4645-3.5356-1.4645zm-20-1.66667c0-.44203.1756-.86595.4882-1.17851.3125-.31256.7365-.48815 1.1785-.48815h10c.442 0 .8659.17559 1.1785.48815s.4882.73648.4882 1.17851v1.66667h-13.3334zm21.6667 23.33337c0 .442-.1756.8659-.4882 1.1785-.3125.3125-.7364.4881-1.1785.4881h-26.66664c-.44203 0-.86595-.1756-1.17851-.4881-.31256-.3126-.48815-.7365-.48815-1.1785v-16.6667c0-.442.17559-.866.48815-1.1785.31256-.3126.73648-.4882 1.17851-.4882h26.66664c.4421 0 .866.1756 1.1785.4882.3126.3125.4882.7365.4882 1.1785z" fill="#0e1317"/><path d="m33.8307 9.9987h-3.3333v-1.66667c0-1.32608-.5268-2.59785-1.4645-3.53553s-2.2094-1.46447-3.5355-1.46447h-10c-1.3261 0-2.5979.52679-3.5355 1.46447-.9377.93768-1.4645 2.20945-1.4645 3.53553v1.66667h-3.33334c-1.32608 0-2.59785.5268-3.53553 1.4645-.93768.9376-1.46447 2.2094-1.46447 3.5355v16.6667c0 1.3261.52679 2.5978 1.46447 3.5355s2.20945 1.4645 3.53553 1.4645h26.66664c1.3261 0 2.5979-.5268 3.5356-1.4645.9376-.9377 1.4644-2.2094 1.4644-3.5355v-16.6667c0-1.3261-.5268-2.5979-1.4644-3.5355-.9377-.9377-2.2095-1.4645-3.5356-1.4645zm-20-1.66667c0-.44203.1756-.86595.4882-1.17851.3125-.31256.7365-.48815 1.1785-.48815h10c.442 0 .8659.17559 1.1785.48815s.4882.73648.4882 1.17851v1.66667h-13.3334zm21.6667 23.33337c0 .442-.1756.8659-.4882 1.1785-.3125.3125-.7364.4881-1.1785.4881h-26.66664c-.44203 0-.86595-.1756-1.17851-.4881-.31256-.3126-.48815-.7365-.48815-1.1785v-16.6667c0-.442.17559-.866.48815-1.1785.31256-.3126.73648-.4882 1.17851-.4882h26.66664c.4421 0 .866.1756 1.1785.4882.3126.3125.4882.7365.4882 1.1785z" fill="#fff"/></g></svg>