<svg fill="none" height="40" viewBox="0 0 40 40" width="40" xmlns="http://www.w3.org/2000/svg"><path clip-rule="evenodd" d="m24.6693 8.33203h-9.3334c-.5304 0-1.0391.21072-1.4142.58579-.375.37507-.5858.88378-.5858 1.41418v6.3334h-7.99996c-.53044 0-1.03914.2107-1.41422.5858-.37507.375-.58578.8837-.58578 1.4142v11c0 .5304.21071 1.0391.58578 1.4142.37508.3751.88378.5858 1.41422.5858h9.33336c.1109.0078.2223.0078.3333 0 .111.0078.2224.0078.3333 0h9.3334c.1109.0078.2223.0078.3333 0 .111.0078.2224.0078.3333 0h9.3334c.2626 0 .5227-.0518.7653-.1523.2427-.1005.4632-.2478.6489-.4335s.333-.4062.4335-.6489c.1005-.2426.1523-.5027.1523-.7653v-7.6667c0-.5304-.2107-1.0391-.5858-1.4142s-.8838-.5858-1.4142-.5858h-8v-9.6667c0-.5304-.2107-1.03911-.5858-1.41418s-.8838-.58579-1.4142-.58579zm-11.3334 19.99997h-6.66663v-8.3333h6.66663zm10-6.3333v6.3333h-6.6666v-16.6666h6.6666zm10 1.3333v5h-6.6666v-5z" fill="#fff" fill-rule="evenodd"/></svg>