<svg fill="none" height="40" viewBox="0 0 41 40" width="41" xmlns="http://www.w3.org/2000/svg"><path clip-rule="evenodd" d="m37.9846 13.7492c0-2.4333-.2833-4.61667-.3666-5.43334-.0266-.26802-.1071-.52791-.2366-.76408-.1295-.23616-.3053-.44374-.517-.61028s-.4548-.28861-.7148-.35889-.5316-.08731-.7983-.05008c-.978.14081-1.9627.22982-2.95.26666-1.1955.07847-2.3961-.01129-3.5667-.26666-1.3888-.47474-2.6856-1.18513-3.8333-2.1-.9563-.70527-1.8691-1.46778-2.7333-2.28334-.3715-.35165-.8635-.54763-1.375-.54763s-1.0036.19598-1.375.54763c-.8592.80291-1.7605 1.55954-2.7 2.26667-1.1652.91113-2.4713 1.62608-3.8667 2.11667-1.3088.31273-2.6583.41957-4.00001.31666-1.11568-.04019-2.2284-.14034-3.33333-.3-.26383-.03012-.53102-.00783-.78622.06557-.25519.07341-.49338.19649-.70089.36219-.2075.16569-.38024.37074-.5083.60337-.12806.23262-.20892.48825-.23793.75221-.08333.81666-.3 2.99997-.36666 5.44997-.15166 2.4315-.0005 4.8725.45 7.2667 1.26066 3.9743 3.59694 7.5219 6.75004 10.25 2.4983 2.355 5.2037 4.4803 8.0833 6.35.7749.5245 1.6892.8048 2.625.8048.9357 0 1.85-.2803 2.625-.8048 2.7201-1.927 5.2735-4.079 7.6333-6.4333 2.967-2.7506 5.1571-6.2341 6.35-10.1.4601-2.4268.6113-4.902.45-7.3667zm-16.3666 21.0667c-.2178.1512-.4766.2323-.7417.2323s-.5239-.0811-.7417-.2323c-2.0602-1.343-4.031-2.8183-5.9-4.4167v-1.3667c0-.8229.1621-1.6378.477-2.3981.315-.7603.7766-1.4512 1.3585-2.0331s1.2727-1.0435 2.033-1.3584 1.5752-.477 2.3982-.477c.8229 0 1.6378.1621 2.3981.477s1.4512.7765 2.0331 1.3584 1.0435 1.2728 1.3584 2.0331c.315.7603.4771 1.5752.4771 2.3981v1.6667c-1.6359 1.4703-3.3555 2.8449-5.15 4.1167zm-1.1167-16.25c-.4714 0-.9322-.1398-1.3241-.4017-.392-.2619-.6974-.6341-.8778-1.0696s-.2276-.9147-.1356-1.377c.0919-.4624.3189-.887.6522-1.2203.3333-.3334.758-.5603 1.2203-.6523s.9416-.0448 1.3771.1356.8077.4859 1.0696.8778c.2618.392.4016.8527.4016 1.3241 0 .6321-.2511 1.2383-.698 1.6853-.447.447-1.0532.6981-1.6853.6981zm13.8 1.6666c-.8424 2.7438-2.3281 5.2466-4.3333 7.3-.2528-1.569-.8906-3.0509-1.8562-4.3132-.9656-1.2622-2.229-2.2655-3.6772-2.9201.5647-.53 1.0143-1.1704 1.3211-1.8814s.4641-1.4775.4623-2.2519c0-.7508-.1479-1.4941-.4352-2.1877s-.7084-1.3238-1.2392-1.8546c-.5309-.5309-1.1611-.952-1.8546-1.2393-.6936-.2872-1.437-.4351-2.1877-.4351s-1.4941.1479-2.1877.4351c-.6936.2873-1.3238.7084-1.8546 1.2393-.5308.5308-.9519 1.161-1.2392 1.8546s-.4352 1.4369-.4352 2.1877c-.0019.7744.1555 1.5409.4623 2.2519.3067.711.7564 1.3514 1.3211 1.8814-1.4246.6386-2.6708 1.6168-3.6297 2.8487-.9588 1.232-1.601 2.6802-1.8703 4.218-2.01927-1.9832-3.51899-4.4331-4.36671-7.1334-.36143-2.1016-.48443-4.2374-.36667-6.3666 0-1.4667.15-2.8334.25-3.85.63334 0 1.41667.1333 2.25.1666 1.67988.1089 3.36648-.0429 4.99998-.44997 1.8044-.58677 3.4954-1.47734 5-2.63334.8334-.61666 1.5667-1.21666 2.1334-1.66666.5666.48333 1.3 1.1 2.1333 1.66666 1.4988 1.16511 3.1914 2.05656 5 2.63334 1.4855.34087 3.0117.46987 4.5333.38337l1.8-.11671c.0834 1.01671.1834 2.40001.2334 3.86671.119 2.1348-.004 4.2762-.3667 6.3833z" fill="#fff" fill-rule="evenodd"/></svg>