<svg fill="none" height="67" viewBox="0 0 59 67" width="59" xmlns="http://www.w3.org/2000/svg"><g fill="#141242"><path d="m49.5602 66.359h-42.41073c-3.94649 0-7.14947-3.2031-7.14947-7.1495v-52.06003c0-3.94649 3.20311-7.14947 7.14947-7.14947h28.92213c.2162 0 .4189.081091.5676.243279l13.5022 13.502221c.1487.1486.2433.3649.2433.5676v14.6909c0 .446-.3649.8109-.8109.8109h-36.6933c-2.23 0-4.04099 1.811-4.04099 4.041v12.3666c0 2.23 1.81099 4.041 4.04099 4.041h36.6933c.446 0 .8109.3649.8109.8109v14.4747c-.0135.446-.3649.8109-.8245.8109zm-42.41073-64.75164c-3.05446 0-5.52765 2.48679-5.52765 5.52765v52.06009c0 3.0544 2.48679 5.5276 5.52765 5.5276h41.61363v-12.8534h-35.8826c-3.12204 0-5.66282-2.5408-5.66282-5.6629v-12.3666c0-3.122 2.54078-5.6628 5.66282-5.6628h35.8826v-13.5417l-13.0289-13.02893h-28.58473z"/><path d="m52.4889 51.9032h-39.5995c-3.12206 0-5.66284-2.5408-5.66284-5.6629v-12.3665c0-3.1221 2.54078-5.6629 5.66284-5.6629h39.5995c3.122 0 5.6628 2.5408 5.6628 5.6629v12.3665c0 3.1221-2.5408 5.6629-5.6628 5.6629zm-39.5995-22.0703c-2.23 0-4.04102 1.811-4.04102 4.041v12.3666c0 2.23 1.81102 4.041 4.04102 4.041h39.5995c2.23 0 4.041-1.811 4.041-4.041v-12.3666c0-2.23-1.811-4.041-4.041-4.041z"/><path d="m17.6641 45.7619v-11.4338h4.3113c.7569 0 1.338.0406 1.7434.1081.5542.0947 1.0272.2703 1.4056.5271s.6893.6352.9191 1.1083c.2297.473.3514 1.0001.3514 1.5542 0 .9731-.3109 1.7975-.9326 2.4733s-1.7434 1.0137-3.3518 1.0137h-2.9327v4.6492zm1.5137-6.0007h2.9598c.9731 0 1.6758-.1892 2.0813-.5406.4055-.3649.6082-.8784.6082-1.5407 0-.473-.1216-.892-.3649-1.2299s-.5676-.5676-.9596-.6758c-.2568-.0675-.7298-.1081-1.4055-.1081h-2.9328v4.0952z"/><path d="m19.2583 45.819h-1.6489v-11.569h4.3789c.7569 0 1.338.0405 1.757.1081.5677.0946 1.0542.2838 1.4327.5406.3919.2703.7028.6488.946 1.1353.2298.473.3514 1.0136.3514 1.5948 0 .9866-.3243 1.838-.946 2.5138-.6352.6893-1.7841 1.0272-3.4058 1.0272h-2.8652zm-1.5137-.1352h1.3785v-4.6492h3.0003c1.5813 0 2.703-.3379 3.3112-.9866.6082-.6623.9055-1.4732.9055-2.4192 0-.5541-.1081-1.0677-.3378-1.5272-.2298-.4594-.5271-.8244-.892-1.0812-.365-.2568-.838-.4325-1.3786-.5271-.4054-.0676-.9866-.1081-1.7299-.1081h-4.2438v11.2987zm4.4059-5.8656h-3.0274v-4.2302h3.0003c.7028 0 1.1623.0406 1.4326.1081.4055.1081.7434.3514.9866.7028.2433.3514.3785.7704.3785 1.2704 0 .6758-.2163 1.2164-.6352 1.5948-.419.3649-1.1353.5541-2.1354.5541zm-2.8922-.1352h2.8922c.9595 0 1.6488-.1757 2.0408-.527.392-.3514.5947-.8515.5947-1.4867 0-.4595-.1217-.8649-.3514-1.1893-.2298-.3244-.5406-.5406-.9191-.6487-.2432-.0676-.7163-.0946-1.3921-.0946h-2.8652z"/><path d="m28.3203 45.7619v-11.4338h3.9465c.892 0 1.5678.0541 2.0408.1622.6488.1487 1.2164.419 1.6758.8244.5947.5136 1.0542 1.1623 1.3516 1.9597.2974.7973.446 1.6894.446 2.7165 0 .865-.1081 1.6353-.3108 2.3111-.2027.6757-.4595 1.2298-.7839 1.6623-.3109.446-.6623.7839-1.0407 1.0407s-.8379.446-1.365.5811c-.5271.1352-1.1488.1892-1.8381.1892zm1.5137-1.3516h2.4463c.7568 0 1.338-.0675 1.7704-.2162.4325-.1352.7704-.3379 1.0272-.5947.3514-.3649.6352-.8379.8379-1.4461s.2973-1.338.2973-2.2029c0-1.2029-.2027-2.1083-.5811-2.7571-.3919-.6487-.865-1.0677-1.4326-1.2839-.4055-.1622-1.0542-.2433-1.9597-.2433h-2.4057z"/><path d="m32.4553 45.819h-4.1897v-11.569h4.014c.892 0 1.5813.0541 2.0543.1622.6757.1622 1.2299.4325 1.7029.8379.6081.5136 1.0677 1.1758 1.3785 1.9867.2973.7974.4595 1.73.4595 2.7436 0 .8785-.1081 1.6623-.3108 2.3245-.2028.6758-.4731 1.2434-.7974 1.6894-.3244.4461-.6758.7974-1.0542 1.0542s-.8379.446-1.3921.5812c-.5541.1216-1.1488.1892-1.8651.1892zm-4.0545-.1352h4.0545c.7028 0 1.2974-.0676 1.8246-.1892.5271-.1352.9866-.3244 1.338-.5676.3649-.2433.7163-.5947 1.0271-1.0272.3109-.4325.5677-.9866.7704-1.6489.2027-.6622.2973-1.4326.2973-2.284 0-1.0001-.1486-1.9056-.446-2.6895-.2973-.784-.7433-1.4191-1.338-1.9192-.4595-.3919-1.0001-.6487-1.6489-.8109-.4595-.1081-1.1352-.1622-2.0137-.1622h-3.8789v11.2988zm3.8924-1.2164h-2.5139v-8.8794h2.4598c.892 0 1.5678.0811 1.9867.2433.5676.2163 1.0677.6623 1.4731 1.3245.392.6623.5947 1.5948.5947 2.7977 0 .865-.1081 1.6084-.2973 2.23-.2028.6082-.4866 1.0948-.8515 1.4732-.2703.2703-.6217.473-1.0542.6082-.446.1351-1.0541.2027-1.7975.2027zm-2.3787-.1351h2.3787c.7433 0 1.3245-.0676 1.7434-.2027.4189-.1352.7568-.3244 1.0001-.5812.3514-.3514.6352-.8379.8244-1.419.2028-.5947.2974-1.338.2974-2.1895 0-1.1758-.1892-2.0814-.5812-2.7165-.3784-.6352-.8514-1.0542-1.4056-1.2569-.4054-.1487-1.0541-.2298-1.9327-.2298h-2.3381v8.5956z"/><path d="m39.9375 45.7619v-11.4338h7.7171v1.3516h-6.2034v3.5409h5.379v1.3516h-5.3655v5.1898z"/><path d="m41.5395 45.819h-1.6489v-11.569h7.8523v1.4866h-6.2034v3.4058h5.3655v1.4866h-5.3655zm-1.5137-.1352h1.3785v-5.1898h5.3656v-1.2164h-5.3656v-3.6761h6.2035v-1.2164h-7.582z"/><path d="m48.406 15.1128h-12.3529c-.446 0-.8109-.3649-.8109-.8109v-12.71755c0-.44601.3649-.810912.8109-.810912s.8109.364902.8109.810912v11.92035h11.5419c.446 0 .8109.365.8109.811s-.3514.7973-.8109.7973z"/></g></svg>