<svg fill="none" height="45" viewBox="0 0 48 45" width="48" xmlns="http://www.w3.org/2000/svg"><path d="m43.7001 6.27171h-10.7935v-2.67723c0-1.90257-1.5478-3.449949-3.4499-3.449949h-11.0085c-1.9026 0-3.4499 1.547789-3.4499 3.449949v2.67723h-10.79457c-2.31803 0-4.20373 1.8857-4.20373 4.20369v29.1753c0 2.318 1.8857 4.2037 4.20373 4.2037h39.49657c2.318 0 4.2037-1.8857 4.2037-4.2037v-29.1753c0-2.31799-1.8859-4.20369-4.2039-4.20369zm-26.4524-2.67723c0-.66179.5384-1.1998 1.1998-1.1998h11.0085c.6617 0 1.1998.53842 1.1998 1.1998v2.67723h-13.4083zm-14.99756 6.88102c0-1.07724.87635-1.95354 1.95359-1.95354h39.49557c1.0773 0 1.9536.87635 1.9536 1.95354v10.0518c0 3.5508-2.8886 6.4395-6.4395 6.4395h-2.3691v-1.0873c0-1.3429-1.0925-2.435-2.4354-2.435h-1.3183c-1.3428 0-2.435 1.0925-2.435 2.435v1.0873h-13.4093v-1.0873c0-1.3429-1.0925-2.435-2.4354-2.435h-1.3183c-1.0908 0-2.0166.7213-2.3256 1.7118-.0121.0381-.0229.0767-.033.1153-.0301.1165-.0518.2366-.0642.3592-.0085.082-.0125.1647-.0125.2487v1.0873h-2.36906c-3.55086 0-6.43906-2.8886-6.43906-6.4395zm30.65646 17.6165v-2.2124c0-.1021.0828-.1848.1849-.1848h1.3183c.102 0 .1852.0827.1852.1848v4.4248c0 .102-.0832.1852-.1852.1852h-1.3183c-.1021 0-.1849-.0832-.1849-.1852zm-19.5976 0v-2.2124c0-.0257.0052-.0498.0145-.0719.0281-.0663.094-.1129.1703-.1129h1.3184c.102 0 .1852.0827.1852.1848v4.4248c0 .102-.0832.1852-.1852.1852h-1.3184c-.102 0-.1848-.0832-.1848-.1852zm32.3455 11.5588c0 1.0773-.8763 1.9536-1.9536 1.9536l-39.49655.0004c-1.07729 0-1.95359-.8764-1.95359-1.9536v-13.2952c1.5912 1.7563 3.88835 2.8613 6.43906 2.8613h2.36908l.0004 1.0873c0 1.3429 1.0925 2.4354 2.435 2.4354h1.3183c1.3429 0 2.4354-1.0925 2.4354-2.4354v-1.0873h13.4093l.0004 1.0873c0 1.3429 1.0925 2.4354 2.435 2.4354h1.3183c1.3429 0 2.4354-1.0925 2.4354-2.4354v-1.0873h2.369c2.5507 0 4.8483-1.105 6.4395-2.8613z" fill="#141242" opacity=".1"/><g stroke-width="2"><path d="m1 20.1445 2.27248 3.9769c1.06825 1.8694 3.05631 3.0231 5.20946 3.0231h3.51806m34.5-7-2.118 4.2361c-.847 1.6939-2.5783 2.7639-4.4722 2.7639h-4.4098m-19.5 0h15.5m4-2.5v5.5c0 .5523-.4477 1-1 1h-2c-.5523 0-1-.4477-1-1v-5.5c0-.5523.4477-1 1-1h2c.5523 0 1 .4477 1 1zm-19.5 0v5.5c0 .5523-.4477 1-1 1h-2c-.5523 0-1-.4477-1-1v-5.5c0-.5523.4477-1 1-1h2c.5523 0 1 .4477 1 1z" stroke="#180eff"/><path d="m16 7.64453h-11c-2.20914 0-4 1.79086-4 3.99997v9.5 18c0 2.2092 1.79086 4 4 4h37.5c2.2091 0 4-1.7908 4-4v-18-9.5c0-2.20911-1.7909-3.99997-4-3.99997h-11m-15.5 0v-4c0-1.10457.8954-2 2-2h11.5c1.1046 0 2 .89543 2 2v4m-15.5 0h15.5" stroke="#000"/></g></svg>