<svg fill="none" height="55" viewBox="0 0 42 55" width="42" xmlns="http://www.w3.org/2000/svg"><path d="m13.5464 7.42066 20.3615.00081c2.3894.09673 4.1887.22557 5.0275 1.06438.8295.82952.9067 2.55525.934 4.88925v33.97c-.0748 2.3374-.1874 4.0858-1.0226 4.921-.8368.8368-2.5922.9514-4.936 1.0295l-20.3703.0004c-2.3768-.0415-4.14388-.1297-4.97385-.96-.83114-.8311-.92706-2.6073-.97785-4.9901v-33.9623c.09225-2.3154.21499-4.05283 1.05512-4.89247.84008-.84008 2.58378-.9705 4.90248-1.07047zm-.0126-1.70582c-.0098 0-.0195 0-.0289.00041-.0045 0-.0089 0-.013.00041-2.0284.08738-4.63238.14753-6.05446 1.5692-1.42417 1.42416-1.47411 4.02484-1.55422 6.04594-.00041.0114-.00041.0223-.00041.0337v33.9863.0182c.0439 2.0655.0443 4.7394 1.47733 6.1724 1.43426 1.4342 4.09956 1.4237 6.15526 1.4594h.0033c.0049 0 .0093.0004.0142.0004l20.3917-.0004c.0094 0 .0187-.0004.0281-.0004 2.041-.0683 4.6726-.1012 6.0996-1.5285 1.4282-1.4278 1.4571-4.0565 1.5217-6.0939.0004-.0089.0004-.0183.0004-.0272v-33.9852-.0098c-.0236-2.0158.0028-4.63974-1.4335-6.07597-1.4248-1.4249-4.0991-1.479-6.1821-1.56307-.0114-.0004-.0227-.00081-.0345-.00081l-20.371-.00081z" fill="#141242"/><g fill="#180eff"><path d="m29.6714 0c-.8681 0-1.744.0739696-2.5348.133718-.0114.00122-.0228.002032-.0342.003658l-20.23461 2.356404c-.00691.00081-.01341.00122-.01992.00203-.00934.00122-.01869.00244-.02763.00366-.00447.00081-.00894.00163-.01382.00203-2.00453.32148-4.58442.6828-5.83223 2.25975-1.249786 1.5794-.9981853 4.16824-.843741 6.18495.000813.0114.001625.0223.003251.0337l3.93341 33.7584c.00041.0061.00122.0122.00204.0179.19589 1.4172.40439 3.1262 1.04169 4.4609-.03861-.667-.04349-1.2961-.05446-1.8314-.00041-.0118-.00041-.0236-.00041-.0358v-8.8633l-3.22622-27.6853c-.17638-2.31011-.25482-4.04963.48202-4.98115.73766-.93152 2.45442-1.26279 4.74621-1.63059l20.22422-2.35567c.9092-.06869 1.7334-.12315 2.4572-.12315 1.175 0 2.0842.14306 2.6596.59866.6011.47552.9275 1.3684 1.1644 2.57636h.3633c.0224 0 .0451.0004.0675.00122.3983.01625.8462.02967 1.3208.05608-.2694-1.53674-.7392-3.08638-1.8574-3.971177-.979-.774645-2.3726-.971883-3.7862-.971883z"/><path d="m16.6827 13.2773c-.4621 0-.8365.3744-.8365.8361 0 .4621.3744.8364.8365.8364l14.5028.0004c.4621 0 .8364-.3743.8364-.8364 0-.4617-.3743-.836-.8364-.836zm3.5733 7.5587c-.4532.593-.8523 1.24-1.1893 1.9305-.3158-.132-.6214-.2763-.916-.4324.6157-.6031 1.3258-1.1104 2.1053-1.4981zm7.3563 0c.7795.3881 1.489.8953 2.1048 1.4984-.2947.1561-.6003.3004-.9157.4325-.3373-.6905-.7359-1.3379-1.1891-1.9309zm-4.4057-.8299v3.6907c-.9718-.052-1.9012-.2089-2.7734-.4543.6649-1.3038 1.5805-2.4065 2.6625-3.2258.037-.0037.0735-.0074.1109-.0106zm1.4549 0c.037.0032.074.0069.111.0105 1.0818.8194 1.9976 1.9221 2.6625 3.2258-.8726.2455-1.8021.4024-2.7734.4548zm-7.4635 3.442c.4215.2357.862.4503 1.3184.6409-.3735 1.0733-.6063 2.224-.6746 3.4192h-2.1423c.1321-1.5054.6678-2.8953 1.4985-4.0601zm2.6702 1.1229c1.0575.3146 2.1792.5101 3.3384.5678v2.3694h-3.922c.065-1.0364.267-2.0227.5836-2.9372zm8.1313 0c.3166.9145.5186 1.9009.5836 2.9376l-3.9215-.0004v-2.3691c1.1591-.0581 2.2804-.2531 3.3379-.5681zm2.6702-1.1229c.8307 1.1652 1.3664 2.5548 1.4985 4.0605h-2.1423c-.0679-1.1957-.3008-2.3463-.6747-3.4192.4564-.191.8966-.4052 1.3185-.6413zm-7.4631 5.5257v2.3694c-1.1592.0577-2.2809.2532-3.3384.5682-.3166-.9149-.5186-1.9012-.5836-2.9376zm5.3766 0c-.065 1.0368-.267 2.0231-.5836 2.9376-1.0571-.315-2.1788-.5105-3.338-.5682v-2.3694zm-10.7416 0c.0683 1.1957.3012 2.3459.6747 3.4192-.4564.1906-.897.4052-1.3185.6414-.8307-1.1652-1.3664-2.5553-1.4984-4.0606zm14.327 0c-.1325 1.5058-.6682 2.8953-1.4989 4.0605-.4215-.2361-.862-.4503-1.3184-.6413.3739-1.0729.6067-2.2235.6746-3.4192zm-3.3672 4.7417c.3154.1321.621.2768.9157.4325-.6158.6031-1.3258 1.1103-2.1053 1.4984.4532-.5934.8522-1.2403 1.1896-1.9309zm-9.7347 0c.337.6905.7361 1.3375 1.1893 1.931-.7796-.3881-1.4891-.8954-2.1053-1.4985.2951-.156.6002-.3004.916-.4325zm4.1399-.9303v3.6908c-.037-.0033-.074-.0065-.111-.0102-1.0818-.8193-1.9975-1.922-2.6629-3.2258.8726-.2459 1.8021-.4024 2.7739-.4548zm1.4549 0c.9714.0524 1.9009.2089 2.7735.4548-.665 1.3038-1.581 2.4065-2.6626 3.2258-.0365.0037-.0739.0069-.1109.0102zm-.7275-14.302c-5.3896-.0004-9.7582 4.3687-9.7582 9.7579s4.3686 9.7582 9.7582 9.7582c5.3892 0 9.7579-4.3686 9.7579-9.7578 0-5.3896-4.3687-9.7583-9.7579-9.7583zm-5.8574 23.4736c-.4617-.0004-.8364.3743-.8364.836 0 .4621.3747.8364.8364.8364h11.7144c.4617 0 .8365-.3743.8365-.836 0-.4621-.3748-.8368-.8365-.8364zm-1.394 3.787c-.4621 0-.8364.3743-.8364.836 0 .4621.3743.8364.8364.8364h14.5028c.4621 0 .8365-.3743.8365-.836 0-.4621-.3744-.8364-.8365-.8364z"/></g></svg>