<svg fill="none" height="54" viewBox="0 0 54 54" width="54" xmlns="http://www.w3.org/2000/svg"><path d="m24.313 12.1241c-4.2928 1.22-8.0696 4.4044-10.3833 9.4002h-.7935c-.2072 0-.4097.1243-.5002.3103l-1.6559 3.3118c-.1632.3361.1267.7962.5002.7935h1.6559v2.1734l-.5691.0169c-.2225.01-.4308.1679-.5001.3796l-1.1038 3.3118c-.1078.3281.1721.72.5175.7246l2.5699-.0342c2.186 4.5946 5.6318 7.4713 9.3605 8.8815 5.1468 1.9462 10.8328 1.0996 14.4934-1.8787.2032-.1725.2502-.5017.1035-.7246l-2.2075-3.2945c-.154-.2433-.5148-.3253-.7589-.1725-2.939 1.86-5.9571 2.5149-8.6929 1.932-2.4698-.5263-4.7101-2.1087-6.5027-4.7432h9.9861c.2014-.0054.395-.1294.4828-.3103l1.6559-3.2945c.1633-.3357-.1267-.7958-.5001-.7935l-13.3668.017v-2.1907l13.3845-.017c.2014-.0054.3951-.1293.4828-.3103l1.6559-3.2945c.161-.3307-.1151-.7846-.4827-.7935h-13.2466c2.0359-2.8328 4.5072-4.3308 7.0544-4.7432 2.8098-.4547 5.7076.3357 8.0893 1.9146.2398.156.5994.0824.7588-.1551l.0173-.0173c.0208-.0328.0381-.0674.0516-.1036l2.1387-3.1736c.1559-.2398.0824-.5994-.1552-.7588-4.2924-2.8128-8.7788-3.6952-13.5402-2.3632zm12.4364 3.0184-1.5871 2.3632c-2.4944-1.5142-5.4632-2.2865-8.4-1.8111-3.1234.5055-6.1735 2.4075-8.4515 6.0884-.211.3365.0858.8562.4828.8451h13.4535l-1.1038 2.1907-13.5915.0169c-.2891 0-.5521.263-.5521.5521v3.2945c0 .2891.263.5521.5521.5521l13.0218-.0169-1.0864 2.1907h-10.6938c-.387-.0054-.6765.4928-.4828.8277 1.9946 3.4003 4.7539 5.4366 7.8132 6.0884 2.9055.6191 6.0457-.0481 9.0379-1.8111l1.6212 2.4148c-3.2279 2.385-8.0842 3.1343-12.5921 1.5977-3.7072-1.2635-7.1788-4.0733-9.3132-8.7904-.0878-.1979-.3011-.3326-.5174-.3276l-2.1213.0169.7415-2.2075.7245-.017c.2834-.0088.5348-.2687.5348-.5521v-3.2598c0-.2887-.263-.5517-.5521-.5521h-1.3109l1.1037-2.2075h.7589c.2106 0 .4146-.1351.5001-.3276 2.1791-4.9412 5.8112-7.9669 9.8826-9.1242 4.1208-1.1823 8.5467-.288 12.125 1.9662z" fill="#180eff" stroke="#180eff" stroke-width=".5"/><circle cx="27" cy="27" r="26" stroke="#202024" stroke-dasharray="4 4" stroke-linecap="round" stroke-linejoin="round" stroke-width="2"/></svg>