<svg fill="none" height="47" viewBox="0 0 59 47" width="59" xmlns="http://www.w3.org/2000/svg"><g stroke="#f3f6fc"><g fill="#000"><path d="m2.4045 19.2095h15.4083c.7705 0 1.4007-.6302 1.4007-1.4006v-.7006c0-3.243-1.709-6.0863-4.2655-7.69701.4837-.82613.7641-1.78559.7641-2.80814 0-3.08854-2.5145-5.60315-5.6031-5.60315-3.08871 0-5.60319 2.51448-5.60319 5.60315 0 1.02253.27994 1.98207.75627 2.80864-2.55613 1.61071-4.25817 4.45401-4.25817 7.69701v.7006c0 .7699.62338 1.4001 1.40063 1.4001zm7.7044-15.40829c1.5408 0 2.8013 1.25356 2.8013 2.80127 0 1.54083-1.2605 2.80126-2.8013 2.80126-1.5477 0-2.80125-1.26043-2.80125-2.80126 0-1.54771 1.25355-2.80127 2.80125-2.80127zm-2.78762 7.65499c.81978.4764 1.77196.7494 2.78762.7494 1.0157 0 1.9611-.273 2.7876-.7494 1.8771.9317 3.2357 2.7735 3.474 4.9519h-12.53048c.24525-2.1779 1.59712-4.0203 3.48088-4.9519z"/><path d="m52.1204 9.41129c.4837-.82613.7636-1.78559.7636-2.80814 0-3.08854-2.5145-5.60315-5.6032-5.60315-3.0885 0-5.6031 2.51448-5.6031 5.60315 0 1.02253.2799 1.98207.7563 2.80864-2.5562 1.61071-4.2582 4.45401-4.2582 7.69701v.7006c0 .7704.6234 1.4006 1.4006 1.4006h15.4083c.7705 0 1.4007-.6302 1.4007-1.4006v-.7006c.0005-3.243-1.7085-6.0863-4.2651-7.69751zm-4.8395-5.6099c1.5408 0 2.8013 1.25355 2.8013 2.80126 0 1.54083-1.2605 2.80126-2.8013 2.80126-1.5477 0-2.8013-1.26043-2.8013-2.80126 0-1.54771 1.2536-2.80126 2.8013-2.80126zm-6.2685 12.60681c.2452-2.1779 1.5971-4.0203 3.4809-4.9519.8197.4763 1.7719.7494 2.7876.7494s1.9611-.2731 2.7876-.7494c1.877.9316 3.2356 2.7735 3.474 4.9519z"/><path d="m20.9904 19.2095h15.4084c.7704 0 1.4006-.6302 1.4006-1.4006v-.7006c0-3.243-1.7089-6.0863-4.2654-7.69701.4836-.82613.764-1.78559.764-2.80814 0-3.08854-2.5144-5.60315-5.6031-5.60315-3.0885 0-5.6032 2.51448-5.6032 5.60315 0 1.02253.28 1.98207.7563 2.80864-2.5561 1.61071-4.2582 4.45401-4.2582 7.69701v.7006c0 .7699.6234 1.4001 1.4007 1.4001zm7.7044-15.40829c1.5409 0 2.8013 1.25356 2.8013 2.80127 0 1.54083-1.2604 2.80126-2.8013 2.80126-1.5477 0-2.8012-1.26043-2.8012-2.80126-.0005-1.54771 1.2535-2.80127 2.8012-2.80127zm-2.7876 7.65499c.8193.4764 1.772.7494 2.7876.7494 1.0157 0 1.9611-.273 2.7877-.7494 1.877.9317 3.2356 2.7735 3.474 4.9519h-12.5305c.2452-2.1779 1.5971-4.0203 3.4808-4.9519z"/></g><path d="m52.8327 30.7686 4.7907-4.7908c.3992-.3991.5184-1.0015.301-1.5267-.217-.5183-.728-.8613-1.2884-.8613h-16.809c-2.3182 0-4.2026 1.8838-4.2026 4.2026v2.8012h-12.2098v-2.8012c0-2.3182-1.8911-4.2026-4.2025-4.2026h-16.80909c-.5672 0-1.07871.343-1.29557.8613-.21692.5252-.0982 1.1276.30094 1.5267l4.79071 4.7908-4.96556 7.4522c-.287267.427-.308265.9805-.06986 1.4358.24476.4553.72109.7421 1.23944.7421h11.20629v4.2025c0 .7705.6234 1.4006 1.4006 1.4006h29.019c.7704 0 1.4006-.6302 1.4006-1.4006v-4.2025h11.2063c.5115 0 .9873-.2873 1.2326-.7426.2452-.4553.2169-1.0083-.0699-1.4358zm-39.2232 1.2257v5.6032h-8.59348l4.15312-6.2265c.3713-.5604.29411-1.2956-.17489-1.772l-3.21511-3.2077h13.43346c.7705 0 1.4007.6302 1.4007 1.4006v2.8013h-5.6032c-.7773.0005-1.4006.6239-1.4006 1.4011zm29.0189 11.2063h-26.2173v-9.8055h26.2173zm2.8013-5.6031v-5.6032c0-.7773-.6302-1.4006-1.4006-1.4006h-5.6032v-2.8013c0-.7704.6234-1.4006 1.4007-1.4006h13.426l-3.2146 3.2077c-.4695.4764-.5462 1.2116-.1749 1.772l4.1531 6.226z" fill="#180eff"/></g></svg>