<svg fill="none" height="40" viewBox="0 0 53 40" width="53" xmlns="http://www.w3.org/2000/svg"><g stroke-width="2"><path d="m51.6494 8.40625h-17.9189m0 6.32435h17.9189" stroke="#202024"/><circle cx="35.3097" cy="30.5401" r="3.74324" stroke="#180eff"/><circle cx="43.7432" cy="30.5401" r="3.74324" stroke="#180eff"/><rect height="37" rx="3" stroke="#202024" width="50.7027" x="1" y="1.5"/></g><path d="m9.38149 8.04346-1.42952 4.48394-1.47066-4.48394h-2.26256l2.80763 7.19904h1.85118l2.75624-7.19904z" fill="#180eff"/><path d="m12.3499 15.2425h2.0157v-7.19904h-2.0157z" fill="#180eff"/><path d="m18.3051 15.4276c1.6763 0 2.8796-.8227 2.8796-2.3962 0-1.6352-1.3781-1.9952-2.4477-2.2626-.6685-.1748-1.2135-.3085-1.2135-.7199 0-.33938.3394-.49365.689-.49365.4114 0 .7508.21598.7508.67875h1.9952c0-1.47064-.9976-2.35509-2.7254-2.35509-1.6969 0-2.7356.81246-2.7356 2.23169 0 1.6352 1.3266 1.954 2.3654 2.2111.689.1646 1.2547.2983 1.2547.7508 0 .3908-.4011.6171-.8125.6171-.4525 0-.8536-.2571-.8536-.7714h-2.0466c0 1.5735 1.1416 2.5094 2.9002 2.5094z" fill="#180eff"/><path d="m26.7232 15.2425h2.1906l-2.8899-7.19904h-1.9437l-2.8282 7.19904h2.1288l.4011-1.1621h2.5505zm-.8741-2.7151h-1.5838l.7816-2.2317z" fill="#180eff"/></svg>