<svg fill="none" height="52" viewBox="0 0 56 52" width="56" xmlns="http://www.w3.org/2000/svg"><path d="m18.665 19.9077c5.4719 0 9.9072-4.4353 9.9072-9.9072 0-5.47186-4.4353-9.90675-9.9072-9.90675s-9.90719 4.4353-9.90719 9.90725c0 5.4718 4.43489 9.9067 9.90719 9.9067zm0-17.51036c4.2047 0 7.6034 3.3983 7.6034 7.60336 0 4.2047-3.3983 7.6035-7.6034 7.6035-4.2047 0-7.6034-3.3983-7.6034-7.6035 0-4.20506 3.4562-7.60336 7.6034-7.60336z" fill="#202024"/><path d="m38.3642 20.7714c3.7438 0 6.7392-3.0528 6.7392-6.7392s-3.0528-6.73923-6.7392-6.73923-6.7392 3.05283-6.7392 6.73923 2.9949 6.7392 6.7392 6.7392zm0-11.17443c2.4192 0 4.4353 2.01623 4.4353 4.43533 0 2.4192-2.0162 4.4353-4.4353 4.4353-2.4192 0-4.4353-2.0162-4.4353-4.4353 0-2.4192 1.9583-4.43533 4.4353-4.43533z" fill="#202024"/><g clip-rule="evenodd" fill-rule="evenodd"><path d="m49.3056 35.5745c0-1.3825-.2881-2.6498-.7489-3.8592h.4034c.5762 0 1.0945-.4609 1.1519-1.0366.6336-6.1055-4.1472-8.9281-6.7392-9.5038-.2881-.0575-.5762 0-.8064.1153-1.6702.8638-3.6864 1.0366-4.4353 1.0366-.9217-.0575-2.7072-.2302-4.2625-1.0366-.2302-.1153-.5183-.1728-.8064-.1153-.0574 0-1.7855.4608-3.5136 1.7281-1.6702-.8639-2.9953-1.2672-3.0528-1.3247-.2881-.1153-.6336-.0575-.9217.0574-.0574 0-3.2834 1.7281-7.2575 1.9583-3.7438.2881-6.6238-1.7855-6.6817-1.7855-.2302-.1727-.5183-.2302-.8063-.2302-2.82255.2881-5.24175 1.4975-7.25755 3.6289-2.2464 2.3617-3.5135954 5.5298-3.5135954 8.9281l-.0574546 5.2417c0 .2881.115313.6336.345538.8064.230225.2302.518307.3455.806382.3455h29.72158l.6265-8.8136 4.5-4.622h7.2l4.6655 3.5854zm-11.2894-11.0014c-1.037-.0579-2.9953-.2882-4.7808-1.0945-.3455.1149-.8643.2876-1.3252.5757 1.2672.8064 2.3617 1.6707 3.2255 2.5345 1.3247-.6336 2.7647-.9791 4.32-.9791 3.1681 0 5.9328 1.4979 7.7762 3.8017h.6336c-.1153-4.0894-3.5136-5.5294-4.6655-5.9328-2.0161.9217-4.205 1.0945-5.0689 1.0945h-.0574zm-35.65452 9.5613-.05745 4.0898 27.59067-.0002c-.2881-.8638-.4034-1.7855-.4034-2.7072 0-3.1106 1.3822-5.8174 3.5711-7.6608-1.0366-.9217-2.3038-1.786-3.9166-2.6498-1.2672-.6915-2.4191-1.1523-2.9953-1.3825-1.1519.5187-4.1472 1.7859-7.7183 2.0162-3.7443.2881-6.7396-1.3247-7.7762-1.9583-2.07372.2881-3.85922 1.2672-5.41452 2.88-1.84341 1.9583-2.82254 4.5503-2.88 7.3728z" fill="#180eff"/><path d="m55.6314 49.8273-7.8237-7.7013c1.5281-1.8338 2.4447-4.1561 2.4447-6.7237 0-1.467-.3057-2.8118-.7947-4.0952l-1.4058-2.4448c-1.9562-2.4447-4.8899-4.0342-8.2518-4.0342-1.6504 0-3.1784.3667-4.5842 1.0391l-2.1999 1.3446c-2.3227 1.9561-3.7894 4.8284-3.7894 8.1293 0 .978.1223 1.9561.428 2.8727l1.0385 2.446c1.8338 3.1171 5.1956 5.1956 9.046 5.1956 2.3838 0 4.5232-.7947 6.2956-2.0781l7.8846 7.7627c.2443.2443.55.3666.8557.3666s.6114-.1223.8557-.3666c.4894-.4903.4897-1.2237.0007-1.7127zm-15.8916-22.5544c-4.4623 0-8.0684 3.6066-8.0684 8.0684s3.6061 8.0679 8.0684 8.0684c4.4622 0 8.0683-3.6066 8.0683-8.0684 0-4.4623-3.6065-8.0684-8.0683-8.0684z" fill="#202024"/></g></svg>