<svg fill="none" height="54" viewBox="0 0 53 54" width="53" xmlns="http://www.w3.org/2000/svg"><path clip-rule="evenodd" d="m27.1161 37.095h14.6145c.5549 0 .9249-.3701.9249-.925v-3.5148c0-4.2549-3.4225-7.8622-7.7698-7.9547-.9249-.1848-3.1448-.8325-4.3473-2.035 1.5726-1.295 2.6823-3.2372 2.8676-5.4575 3.1448-.8325 3.8849-5.1799 1.295-7.1221.5548-4.62507-.8325-8.78712-5.3647-7.7698-5.18-3.60728-12.5792.46246-11.8401 7.7698-2.5899 2.035-1.7574 6.2895 1.3875 7.1221.1848 2.3123 1.3874 4.3474 3.1448 5.5499-.9249 1.0173-2.4051 1.665-4.5322 1.8499-4.3473.0924-7.76974 3.6997-7.76974 7.9546v3.5149c0 .5548.37004.9249.92494.9249l14.6144.0008zm1.4807-33.02155c-3.3301-2.95995-9.7121-.3701-9.1572 5.82714 1.6645.27751 6.6598.74021 10.3598-2.95913.2777-.27764.6473-.37005.925-.27764.2772.09241.5548.36962.6472.64727.0233 0 .0761.11784.1584.30147.2437.54393.746 1.66509 1.5066 2.01083.0929-1.4802.0929-4.07016-1.0173-5.08748-.6641-.61275-1.4126-.46417-2.0745-.3328-.5368.10655-1.0166.20179-1.348-.12966zm-8.7876 11.46985c.5549 0 .9249.3701.9249.925 0 3.1448 2.4048 5.9194 5.4568 5.9199 3.0524 0 5.4574-2.6829 5.4574-5.92 0-.5549.3701-.925.9249-.925 1.9423 0 2.6823-2.7747 1.0174-3.9772-1.665.0924-2.8676-1.1101-3.5149-2.40511-3.2368 2.68231-7.5842 3.33001-11.3767 2.49751-1.5721 1.2026-.7397 3.8849 1.1102 3.8849zm-2.2199 11.0066c-3.3301 0-6.0124 2.7747-6.0124 6.1048v2.59l29.2289.0004v-2.5899c0-3.3301-2.6823-6.0124-6.0123-6.1048-2.1274-.4626-4.4397-1.295-5.8272-2.8676-1.6649.7396-3.5148.7396-5.2722.0924-2.0351 2.5899-6.0124 2.7747-6.1048 2.7747z" fill="#180eff" fill-rule="evenodd"/><g fill="#202024"><path clip-rule="evenodd" d="m51.9837 42.6575h-3.6073v-4.3474c0-1.5726-1.2949-2.9599-2.9599-2.9599h-18.0375l-1.8502-.092-18.12909-.0004c-1.57264 0-2.95995 1.295-2.95995 2.96v4.3473h-3.51484c-.55486 0-.92492.3701-.92492.925v8.6023c0 .5548.370049.9249.92492.9249h9.06475c.55483 0 .92493-.3701.92493-.9249v-8.5099c0-.5548-.3701-.9249-.92493-.9249h-3.60728v-4.3474c0-.5549.46246-1.1102 1.1102-1.1102l18.03641.0004v5.4575h-3.6073c-.5548 0-.9249.3701-.9249.9249l-.0004 8.5096c0 .5548.37.9249.9249.9249h9.0647c.5549 0 .925-.3701.925-.9249v-8.5099c0-.5549-.3701-.9249-.925-.9249h-3.6072v-5.4575h18.129c.5549 0 1.1102.4625 1.1102 1.1102v4.3474h-3.6072c-.5549 0-.925.37-.925.9249l-.0004 8.5099c0 .5548.3701.9249.9249.9249h9.0648c.5548 0 .9249-.37.9249-.9249v-8.5099c-.0924-.4625-.4625-.9249-1.0173-.9249zm-50.13323 8.5092h7.12212.09246l.00042-6.6597h-7.215zm20.99593 0h7.215v-6.6597h-7.215zm20.9972 0h7.215v-6.6597h-7.215z" fill-rule="evenodd"/><path d="m46.5235 47.8371c0 .5549.37.925.9249.925.4624 0 .9249-.3701.9249-.925 0-.2776-.0924-.4624-.2777-.6472-.462-.5553-1.5722-.1853-1.5722.6472z"/><path d="m25.5313 47.8373c0 .5549.4624.9249.9249.9249.8325 0 1.2025-1.0173.6473-1.5726-.5549-.5549-1.5723-.1848-1.5723.6477z"/><path d="m4.71862 48.4847c.92492.8325 2.12752-.4624 1.29498-1.2949-.74011-.8321-2.12752.37-1.29498 1.2949z"/></g></svg>