<svg fill="none" height="10" viewBox="0 0 76 10" width="76" xmlns="http://www.w3.org/2000/svg" xmlns:xlink="http://www.w3.org/1999/xlink"><mask id="a" fill="#fff"><path clip-rule="evenodd" d="m5.09319 4.46201-1.19975 3.19573-2.51263-7.101761h-1.38081l3.31621 8.693551h1.08653l1.50535-3.89369 1.49403 3.89369h1.08653l3.31625-8.693551h-1.3925l-2.50098 7.101761-1.19975-3.19573 1.36949-3.869288h-1.18834l-.99605 2.950958-.98473-2.950958h-1.19919zm22.66461 1.13253c-.272-.39072-.6562-.67276-1.0923-.80192.3593-.16947.6588-.45918.8546-.82652.1972-.36159.3006-.77402.2994-1.19387-.0007-.27342-.0447-.54468-.1301-.80202-.0832-.25819-.2077-.49855-.3679-.7101-.1594-.20903-.3556-.381755-.5772-.508155-.2337-.132437-.4941-.199792-.7579-.195976h-4.1424v8.693551h3.8369c.326.00222.6504-.04939.962-.15306.2853-.09266.5521-.24217.7866-.44084.2219-.19078.4033-.43087.532-.70403.1352-.29244.2031-.61588.198-.94283.014-.50645-.1273-1.00368-.4017-1.41423zm-.9904 1.66527c-.0577.15468-.1422.296-.249.41635-.1065.11907-.2334.2147-.3735.28161-.1461.07001-.3043.10548-.464.10406h-2.5693v-2.65699h2.6485c.1531-.00136.3043.03637.4414.11013.1327.07083.2502.17081.3452.29356.0973.12801.1738.27293.2263.42859.0568.16445.0856.33868.085.51424.0009.17427-.0298.34704-.0906.50845zm-1.2563-5.51604c.1415-.00361.2819.02693.4112.08941.1292.06247.2439.15531.3358.27177.2017.25739.3067.58727.2943.9244.002.17571-.0268.35023-.0849.51433-.0529.14903-.1339.28456-.2377.39803-.1014.10978-.2202.19893-.3508.26319-.137.06643-.2857.09983-.4358.09788h-2.3316v-2.55901zm13.1407 7.50576v-8.693551h-1.3586l-2.6597 5.314401-2.6599-5.314401h-1.3581v8.693551h1.2676v-6.25693l2.3995 4.73863h.7017l2.3882-4.73863v6.25693zm13.7516 0c.553.00849 1.1025-.0975 1.6188-.31229.4647-.1951.8853-.49572 1.2336-.88158.3473-.3931.6152-.86011.7866-1.37132.1913-.57508.2852-1.18273.2774-1.79384.0034-.57221-.0808-1.1411-.249-1.6836-.1569-.50946-.4093-.97841-.7414-1.37749-.341-.4015-.7579-.71888-1.2224-.930577-.5399-.239497-1.1196-.356203-1.703-.342854h-2.8533v8.693551h2.8522zm2.456-3.11009c-.1042.36586-.2755.70525-.5037.99789-.2262.28454-.5085.5105-.8262.66121-.3555.16514-.7393.24654-1.1261.2388h-1.5851v-6.26917h1.5846c.3807-.0072.7586.07212 1.1092.23282.3148.14769.5966.36691.8262.64279.2329.28636.4082.62203.5147.98564.1203.40757.1795.83335.1754 1.26118.0036.42326-.0536.84456-.1695 1.24884zm5.1949 3.11009v-8.693551h-1.268v8.693551h1.2675zm2.1164 0h1.3463l.8376-2.36314h3.1012l.8488 2.36314h1.3357l-3.1692-8.693551h-1.1091zm2.4108-3.37946 1.3355-3.73455 1.2903 3.73455h-2.6263zm-50.7631-5.37007h5.6142v1.21472h-5.6142zm0 3.74539h4.9592v1.21472h-4.9592zm0 3.74538h5.6142v1.21472h-5.6142zm27.7902-7.49077h5.6142v1.21472h-5.6142zm0 3.74539h4.9592v1.21472h-4.9592zm0 3.74538h5.6142v1.21472h-5.6142z" fill="#fff" fill-rule="evenodd"/></mask><path d="m5.09319 4.46201-1.19975 3.19573-2.51263-7.101761h-1.38081l3.31621 8.693551h1.08653l1.50535-3.89369 1.49403 3.89369h1.08653l3.31625-8.693551h-1.3925l-2.50098 7.101761-1.19975-3.19573 1.36949-3.869288h-1.18834l-.99605 2.950958-.98473-2.950958h-1.19919zm22.66461 1.13253c-.272-.39072-.6562-.67276-1.0923-.80192.3593-.16947.6588-.45918.8546-.82652.1972-.36159.3006-.77402.2994-1.19387-.0007-.27342-.0447-.54468-.1301-.80202-.0832-.25819-.2077-.49855-.3679-.7101-.1594-.20903-.3556-.381755-.5772-.508155-.2337-.132437-.4941-.199792-.7579-.195976h-4.1424v8.693551h3.8369c.326.00222.6504-.04939.962-.15306.2853-.09266.5521-.24217.7866-.44084.2219-.19078.4033-.43087.532-.70403.1352-.29244.2031-.61588.198-.94283.014-.50645-.1273-1.00368-.4017-1.41423zm-.9904 1.66527c-.0577.15468-.1422.296-.249.41635-.1065.11907-.2334.2147-.3735.28161-.1461.07001-.3043.10548-.464.10406h-2.5693v-2.65699h2.6485c.1531-.00136.3043.03637.4414.11013.1327.07083.2502.17081.3452.29356.0973.12801.1738.27293.2263.42859.0568.16445.0856.33868.085.51424.0009.17427-.0298.34704-.0906.50845zm-1.2563-5.51604c.1415-.00361.2819.02693.4112.08941.1292.06247.2439.15531.3358.27177.2017.25739.3067.58727.2943.9244.002.17571-.0268.35023-.0849.51433-.0529.14903-.1339.28456-.2377.39803-.1014.10978-.2202.19893-.3508.26319-.137.06643-.2857.09983-.4358.09788h-2.3316v-2.55901zm13.1407 7.50576v-8.693551h-1.3586l-2.6597 5.314401-2.6599-5.314401h-1.3581v8.693551h1.2676v-6.25693l2.3995 4.73863h.7017l2.3882-4.73863v6.25693zm13.7516 0c.553.00849 1.1025-.0975 1.6188-.31229.4647-.1951.8853-.49572 1.2336-.88158.3473-.3931.6152-.86011.7866-1.37132.1913-.57508.2852-1.18273.2774-1.79384.0034-.57221-.0808-1.1411-.249-1.6836-.1569-.50946-.4093-.97841-.7414-1.37749-.341-.4015-.7579-.71888-1.2224-.930577-.5399-.239497-1.1196-.356203-1.703-.342854h-2.8533v8.693551h2.8522zm2.456-3.11009c-.1042.36586-.2755.70525-.5037.99789-.2262.28454-.5085.5105-.8262.66121-.3555.16514-.7393.24654-1.1261.2388h-1.5851v-6.26917h1.5846c.3807-.0072.7586.07212 1.1092.23282.3148.14769.5966.36691.8262.64279.2329.28636.4082.62203.5147.98564.1203.40757.1795.83335.1754 1.26118.0036.42326-.0536.84456-.1695 1.24884zm5.1949 3.11009v-8.693551h-1.268v8.693551h1.2675zm2.1164 0h1.3463l.8376-2.36314h3.1012l.8488 2.36314h1.3357l-3.1692-8.693551h-1.1091zm2.4108-3.37946 1.3355-3.73455 1.2903 3.73455h-2.6263zm-50.7631-5.37007h5.6142v1.21472h-5.6142zm0 3.74539h4.9592v1.21472h-4.9592zm0 3.74538h5.6142v1.21472h-5.6142zm27.7902-7.49077h5.6142v1.21472h-5.6142zm0 3.74539h4.9592v1.21472h-4.9592zm0 3.74538h5.6142v1.21472h-5.6142z" style="fill-rule:evenodd;clip-rule:evenodd;fill:#000;stroke:#fff;stroke-width:2;mask:url(#a);opacity:.3"/><path d="m74 7.5h2v2h-2z" fill="#f00"/></svg>