<svg fill="none" height="79" viewBox="0 0 66 79" width="66" xmlns="http://www.w3.org/2000/svg"><g clip-rule="evenodd" fill="#180eff" fill-rule="evenodd" stroke="#f3f6fc" stroke-width="4"><path d="m48.497 6.37818c-.9357-1.34874-2.1836-2.45126-3.6373-3.2136-1.4538-.76233-3.0703-1.16188-4.7118-1.16458h-27.9661c-2.70037 0-5.29015 1.07272-7.19961 2.98219-1.90947 1.90946-2.98219 4.49924-2.98219 7.19961v54.3031c0 2.7003 1.07272 5.2901 2.98219 7.1996 1.90946 1.9094 4.49924 2.9822 7.19961 2.9822h40.7273c2.7004 0 5.2902-1.0728 7.1996-2.9822 1.9095-1.9095 2.9822-4.4993 2.9822-7.1996v-35.9758c-.0049-2.0762-.6444-4.1012-1.8327-5.8036zm7.806 60.10672c0 .9001-.3575 1.7633-.994 2.3998s-1.4998.9941-2.3999.9941h-40.7273c-.9001 0-1.7634-.3576-2.39986-.9941-.63649-.6365-.99406-1.4997-.99406-2.3998v-54.3031c0-.9001.35757-1.7634.99406-2.39986.63646-.63649 1.49976-.99406 2.39986-.99406h27.9661c.5471.0009 1.086.13408 1.5706.38819.4846.25412.9005.62162 1.2124 1.07123l12.7612 18.3272c.3961.5675.6093 1.2425.6109 1.9346z"/><path d="m47.1078 39.3336h-11.166v-11.1661c0-1.3236-1.5273-2.4097-3.394-2.4097-1.8666 0-3.3939 1.0861-3.3939 2.4097v11.1661h-11.1661c-1.3236 0-2.4097 1.5272-2.4097 3.3939s1.0861 3.3939 2.4097 3.3939h11.1661v11.1661c0 1.3236 1.5273 2.4097 3.3939 2.4097 1.8667 0 3.394-1.0861 3.394-2.4097v-11.1661h11.166c1.3237 0 2.4097-1.5272 2.4097-3.3939s-1.086-3.3939-2.4097-3.3939z"/></g></svg>