<svg fill="none" height="56" viewBox="0 0 51 56" width="51" xmlns="http://www.w3.org/2000/svg"><g fill="#180eff"><path d="m12.9194 43.4199c-.5498-.2065-1.1627.0701-1.3715.6191l-2.27439 6.0134c-.3703-.4588-.70652-.9439-1.00546-1.4518-.31741-.5349-.94988-.7963-1.55219-.6411-.67714.1748-1.3648.3056-2.05879.3918l2.11647-5.5942c.20768-.5494-.06897-1.1634-.61875-1.3715-.54939-.2081-1.16347.069-1.37152.6184l-3.23639 8.5554 1.52711.0122-.0004-.0004c1.22847.0023 2.45303-.1399 3.64819-.4244.62188.9879 1.38166 1.8825 2.25591 2.656l1.15281.9997 3.4073-9.0112c.2076-.5498-.069-1.1635-.6184-1.3715z"/><path d="m20.0011 41.2096c-.5494.208-.8264.8221-.6184 1.3715l2.6576 7.0268c-.6951-.0862-1.384-.2175-2.0624-.3922-.603-.1544-1.2351.1089-1.5502.6454-.2982.5066-.6332.991-1.0023 1.4483l-1.2729-3.3653v.0004c-.0995-.2641-.3001-.4781-.5572-.594-.2574-.1164-.5501-.1254-.8143-.0259-.2637.0999-.4772.3005-.5932.558-.116.2571-.125.5502-.0251.8139l2.4056 6.3634 1.1528-1c.8742-.7731 1.6336-1.6678 2.2551-2.6561 1.196.2783 2.4193.4209 3.647.4248l1.5271-.0121-3.7779-9.9881c-.2077-.5498-.8217-.8264-1.3715-.6187z"/><path d="m1.69581 34.4567c.22611.5706.68027 1.0209 1.25235 1.2423.41263.1606.76922.4377 1.02743.7974.25785.3597.40636.7865.42635 1.2285.02625.6171.30878 1.1951.77979 1.5945.47102.3997 1.08783.5842 1.70066.509.43849-.0521.88247.0239 1.27903.2183.39656.1947.72807.4996.95535.8781.31466.5318.83741.9076 1.44163 1.0365.6043.1293 1.2348 0 1.7395-.3566.3115-.2198.6732-.3578 1.0521-.4005.3774.0427.7379.1795 1.0482.3982.5079.3581 1.1419.4882 1.7496.3585.6027-.1297 1.1231-.5059 1.4357-1.0369.1795-.3056.4303-.5635.7305-.7515.4443-.2881.9757-.4103 1.5012-.3445.6136.0756 1.2305-.1085 1.7023-.5082.4714-.3997.7543-.9781.7805-1.5957.0177-.4424.165-.8703.4232-1.2304.2583-.3598.616-.636 1.0299-.7947.5748-.225 1.0302-.6795 1.2559-1.2544.2258-.5744.2018-1.2171-.0666-1.7736-.1555-.3166-.2343-.6653-.23-1.018.0094-.5329.2038-1.0459.5502-1.451.4012-.4687.5882-1.0836.516-1.6964-.0721-.6125-.3969-1.1674-.8957-1.5298-.359-.2594-.6341-.618-.792-1.0318-.1575-.4138-.1904-.8648-.0952-1.297.1317-.6035.0055-1.2351-.3488-1.7414-.3542-.5063-.904-.8413-1.5164-.9248-.4381-.0592-.8492-.2449-1.1835-.5341-.3338-.2896-.5764-.6701-.6975-1.0953-.1677-.594-.576-1.0905-1.1262-1.3699-.5506-.279-1.1925-.3154-1.7704-.0999-.3327.1238-.6889.1693-1.0416.1324-.5317-.0584-1.0259-.3017-1.3958-.6877-.4099-.4267-.9765-.6673-1.5682-.6661-.5917.0011-1.1572.2441-1.5655.6724-.3671.3817-.8566.6223-1.3832.6807-.3527.038-.70927-.0063-1.04239-.1294-.5776-.2174-1.22025-.1826-1.77158.0953-.55096.2778-.96084.7739-1.13016 1.3676-.11991.4267-.36247.8088-.69712 1.0995-.33503.2904-.74766.4765-1.18694.5349-.61169.0839-1.16065.4193-1.51457.9256-.35384.5063-.48003 1.1368-.34836 1.7403.09522.4322.0623.8824-.09483 1.2963-.15714.4134-.43183.7719-.79038 1.0313-.50002.3625-.825654.917-.898534 1.5298-.072885.6133.113634 1.2285.514514 1.698.28919.3358.47376.7492.53097 1.1885.05682.4397-.01607.8864-.21004 1.285-.26804.5591-.28998 1.2046-.06152 1.781zm1.37313-5.7587c.55722-.402 1.01179-.9299 1.32567-1.5411.47141-.9131.60895-1.9624.38912-2.966-.01058-.0454.00588-.0811.06662-.1003.68144-.0921 1.33229-.3417 1.90088-.7293.14343-.0979.28058-.2045.41107-.3189.52392-.4593.93184-1.0357 1.19085-1.6823.03958-.0988.07641-.1987.10854-.3002.01568-.0505.02626-.1034.0435-.1532.02899-.0827.16105-.009.20964.0078.09835.0337.1975.0639.29782.0909.39891.107.81114.1572 1.22415.1482.1297-.0028.259-.0106.3879-.0251 1.04-.125 2.0095-.5905 2.7571-1.3245.5945.6188 1.357 1.0502 2.194 1.2406.8367.1909 1.7109.1325 2.515-.1681.0819-.0321.1065.0278.1081.0502l-.0004.0004c.2218.7805.6548 1.4847 1.2513 2.0353.5964.5502 1.3335.9252 2.1294 1.0835.0482.0094.0964.0184.145.0262.067.011.2167.0067.1924.1141-.185.837-.1215 1.7105.183 2.5118.3048.8017.837 1.4969 1.531 2.0001l.0149.1183h.0004c-.6697.7834-1.0459 1.7755-1.0632 2.8058-.0098.6865.1427 1.3652.4444 1.9816.0137.0415-.0032.087-.0404.1093-.9628.3727-1.7645 1.0698-2.2669 1.9714-.2829.5083-.4612 1.0682-.5251 1.6466-.0114.1035-.0306.3825-.0306.3825s-.2175-.0122-.2833-.0173v.0004c-.9557-.074-1.9099.1666-2.7159.685-.5835.3687-1.0698.8723-1.4182 1.4683l-.0314.0588-.0885-.0447c-.6478-.4557-1.4065-.7284-2.196-.7896l-.0808-.0058-.0807.0058h.0004c-.7904.0608-1.5494.3335-2.1971.7896-.0176.0169-.0419.0243-.0662.0204-.0239-.0039-.0451-.0184-.0569-.04-.3479-.5913-.8311-1.0917-1.4103-1.4601-.86484-.5564-1.89698-.7927-2.91779-.6681-.05173.0024-.08699-.0168-.09326-.0744h.00039c-.02626-.6878-.21591-1.3594-.55291-1.9597-.08386-.1505-.17634-.2962-.27666-.4365-.40439-.5612-.93536-1.0193-1.54978-1.3367-.08464-.0434-.17124-.0826-.25862-.1203-.04428-.0188-.08856-.0376-.13284-.056-.03448-.0145-.09091-.0255-.10345-.0658-.0047-.0204.0004-.0419.01333-.0584.01175-.0192.02233-.0396.03135-.0604.02116-.045.04153-.0905.06113-.1363.03918-.0913.07523-.1834.10815-.2771.06544-.1865.11795-.3773.15713-.5709.03997-.1951.06623-.3926.07916-.5909.00783-.118.01097-.2363.0094-.3547-.01685-1.0309-.39421-2.0235-1.06666-2.8053-.01293-.018-.01802-.0404-.0141-.0623.00431-.0216.01724-.0408.03566-.0525z"/><path d="m42.0899 23.582h-14.1897c-.5878 0-1.0643.4765-1.0643 1.0639 0 .5878.4765 1.0642 1.0643 1.0642h14.1897c.5874 0 1.0638-.4765 1.0638-1.0642 0-.5874-.4765-1.0639-1.0638-1.0639z"/><path d="m42.0897 32.332h-13.0571c-.5878 0-1.0638.4765-1.0638 1.0639 0 .5878.4761 1.0638 1.0638 1.0638h13.0571c.5874 0 1.0639-.4761 1.0639-1.0638 0-.5874-.4765-1.0639-1.0639-1.0639z"/></g><path d="m50.4238 12.8461c-.0564-.2288-.1893-.4314-.3766-.5749-.0697-.0905-.1289-.1849-.2085-.2703l-8.8666-9.72599c-.7755-.85268-1.8747-1.338612-3.0271-1.337408h-20.2157c-1.4443.001568-2.8292.576038-3.8504 1.597228-1.0212 1.02122-1.5956 2.40558-1.5977 3.85003v8.08594c0 .5878.4766 1.0639 1.0643 1.0639.5874 0 1.0639-.4761 1.0639-1.0639v-8.08594c.0007-.88011.3511-1.72383.9733-2.34609.6227-.62227 1.4663-.9722 2.3465-.97338h20.2157c.5525-.00117 1.08.23159 1.4519.6403l7.5966 8.33241-3.9233.0004c-.8789-.0011-1.7218-.3507-2.3436-.9726-.6215-.6215-.9711-1.46438-.9719-2.34365v-2.11606c0-.5874-.4765-1.06385-1.0642-1.06385-.5874 0-1.0639.4765-1.0639 1.06385v2.11606c.0016 1.44325.5757 2.82695 1.5961 3.84765 1.0208 1.0204 2.4044 1.5948 3.8476 1.5964h5.6138c.0623.192.0944.3923.096.5945v25.8153c-.0012.8758-.3496 1.7152-.9683 2.3343-.6191.6192-1.4589.9671-2.3344.9683h-19.5164c-.5874 0-1.0639.4761-1.0639 1.0639 0 .5874.4765 1.0638 1.0639 1.0638h19.5164c1.4398-.0016 2.8202-.5745 3.8379-1.5921 1.018-1.018 1.5909-2.3986 1.5926-3.8383v-25.8153c-.002-.6681-.1682-1.3257-.484-1.9146z" fill="#141242"/></svg>