<svg fill="none" height="48" viewBox="0 0 48 48" width="48" xmlns="http://www.w3.org/2000/svg"><path d="m23.6149 47.2298c-6.2632 0-12.27-2.4883-16.69824-6.9166-4.42837-4.4288-6.91666-10.4349-6.91666-16.6983 0-6.2633 2.48829-12.27 6.91666-16.69824 4.42874-4.42874 10.43494-6.91666 16.69824-6.91666 6.2634 0 12.27 2.48792 16.6983 6.91666 4.4287 4.42874 6.9166 10.43494 6.9166 16.69824-.0069 6.261-2.4969 12.2635-6.9242 16.6908-4.4274 4.427-10.4303 6.9174-16.6909 6.9243zm0-45.67295c-5.8501 0-11.4609 2.32387-15.5972 6.46048-4.13698 4.13657-6.46085 9.74717-6.46085 15.59717 0 5.8501 2.32387 11.4609 6.46085 15.5972 4.1366 4.137 9.7472 6.4609 15.5972 6.4609s11.4609-2.3239 15.5972-6.4609c4.1366-4.1366 6.4605-9.7472 6.4605-15.5972-.0069-5.8479-2.333-11.4544-6.4681-15.58976-4.1351-4.13512-9.7416-6.46122-15.5898-6.46808z" fill="#000"/><g fill="#180eff"><path d="m22.644 42.7464h-.0375c-.4903-.028-.981-.0746-1.4668-.1402h.0003c-.1847-.0244-.3522-.1216-.4653-.27-.113-.148-.1625-.3352-.1375-.5201.0235-.1843.1196-.3516.2672-.4641s.334-.1611.5177-.1343c.4673.0561.911.1027 1.364.1262.387.0114.691.3349.6796.7223-.0117.3871-.3346.6916-.7217.6802zm2.8398-.0561c-.3867.018-.7151-.2814-.7334-.6685-.0179-.3874.2812-.7161.6683-.734.4672-.0421.906-.1027 1.3544-.1823.387-.0672.7549.1924.822.5795.0671.3874-.1922.7559-.5793.8231-.4672.0887-.9761.1542-1.4619.2008zm-7.0064-.673v-.0003c-.0677 0-.1355-.0095-.2007-.0281-.4672-.1402-.9341-.3039-1.4013-.4676v.0003c-.361-.1396-.5409-.5456-.4018-.9072.1395-.3613.5451-.5413.9061-.4018.4203.1637.8546.3085 1.2893.4396v-.0003c.3346.0978.5467.4269.4975.7725-.0495.3454-.345.602-.6937.602zm11.2103-.2289.0003-.0004c-.3434.0013-.6373-.2462-.6943-.5853-.0567-.3388.1401-.6692.4653-.7797.4297-.1497.8595-.3134 1.2752-.4957.3408-.088.694.0907.8253.4174.1313.3268 0 .7005-.3069.873-.4673.1917-.911.374-1.378.5328-.0739.0242-.1511.0369-.2287.0375zm-15.143-1.4636c-.1229-.0006-.2434-.0329-.3503-.0936-.4297-.2478-.8455-.5142-1.2518-.7901-.1596-.1027-.2707-.2654-.3082-.4517-.0375-.1862.0023-.3795.1098-.5357.1075-.1566.2737-.2625.461-.2942.187-.0313.3786.0144.5314.1269.3737.2569.7615.5002 1.1583.7291l.0004.0004c.275.1584.4092.4823.3271.7891-.0821.3069-.36.5202-.6777.5198zm18.9356-.388c-.304-.0118-.5656-.2185-.6477-.5117-.0821-.2935.0345-.6062.2883-.7741.3877-.243.766-.5048 1.1257-.7762v.0004c.3109-.2325.751-.1686.983.1425.2323.3111.1685.7516-.1424.9841-.3923.2899-.7986.575-1.2143.8368-.1183.072-.2542.1092-.3926.1073zm-22.3554-2.1461c-.1743-.002-.3411-.0704-.4669-.1914-.3552-.3366-.70541-.6871-1.03221-1.0521-.21797-.2902-.17822-.6988.09123-.942.26946-.243.67968-.2397.94558.0071.3036.3366.6258.664.9575.977.2069.1957.275.4967.1724.7624-.1024.2655-.3552.4429-.6396.4484zm25.6618-.5237v.0003c-.1753-.0052-.3425-.0769-.4669-.2012-.2734-.2736-.2734-.7171 0-.991.3176-.3274.6259-.6685.9341-1.0145.2489-.2967.6914-.3355.9879-.0864.2968.2491.3352.692.0863.9888-.3177.374-.6494.7431-.9951 1.094h.0004c-.1421.1477-.3425.2247-.5468.2103zm-28.42267-2.7347c-.23492.001-.45452-.1167-.58387-.3131-.27075-.4066-.52782-.8322-.766-1.2623-.10361-.163-.13554-.362-.08765-.5495.04757-.1872.17041-.3466.33951-.4402.16909-.0936.36915-.1132.55324-.0541.18408.059.33559.1914.41867.3658.22416.3976.46723.7902.70996 1.1688.10296.1552.1401.3447.10328.527-.03681.1823-.14466.3427-.29942.4454-.11632.0731-.25055.1119-.38772.1122zm31.01497-.631c-.1287.0006-.2551-.0349-.3642-.1027-.3174-.2074-.4141-.6284-.2196-.9539.2381-.3881.4672-.7901.6633-1.1968.174-.346.5953-.4852.941-.3108.3457.1742.4848.5958.3108.9418-.2196.4347-.4672.8694-.7145 1.295h-.0003c-.13.2047-.3555.3283-.5979.3274zm-32.91588-3.1651c-.29584-.002-.55877-.1889-.65847-.4674-.16812-.4676-.31768-.9349-.46723-1.4025-.10328-.3672.10361-.7504.46723-.8648.36752-.1089.75362.1001.86404.4676.12153.4347.26619.8694.42031 1.2995.06451.1741.05701.3669-.02086.5355-.07819.1685-.22025.299-.39489.3619-.06516.0359-.13652.0597-.21015.0701zm34.69588-.6966c-.2287.0026-.4444-.107-.5774-.2932-.1329-.1862-.1668-.4259-.0905-.6417.1401-.4302.2616-.8743.3642-1.3135.089-.377.4666-.6105.8432-.5215.3767.089.6096.467.5207.8439-.1121.4677-.2428.935-.3923 1.4026-.0785.3059-.3525.5208-.6679.5234zm-35.68178-3.4453c-.35611 0-.65555-.2677-.69595-.6219-.05604-.4676-.09351-.977-.11664-1.4727-.00749-.1859.0593-.3672.1854-.5041.12609-.1367.30138-.2175.48709-.225.38707-.0157.71322.286.72853.673 0 .4677.05604.9349.10753 1.3651.02248.1849-.02933.3711-.14434.5175-.11469.1465-.28281.241-.46756.2632zm36.51758-.7621h-.0561c-.3845-.0323-.6715-.3675-.6445-.7526.0326-.4677.0515-.9118.0515-1.3696v-.0796h-.0003c0-.3874.3138-.7015.7008-.7015.3868 0 .7005.3141.7005.7015v.0796c0 .4907 0 .9864-.056 1.4772-.029.3632-.3317.6437-.696.645zm-36.52675-3.5016h-.0795.00033c-.18442-.0199-.35287-.1126-.46853-.2573-.11567-.1448-.1691-.3297-.14825-.514.05604-.4908.13066-.9819.22417-1.4632h.00032c.02542-.1917.1287-.3639.28542-.4767s.35287-.1559.54216-.1194c.18963.0369.35547.1504.45876.3134.10328.1634.13456.362.08667.5492-.08406.4676-.15412.9023-.20559 1.351h.00032c-.04268.3522-.34146.6173-.69627.617zm36.33065-.8228h.0004c-.3451-.0003-.6383-.2524-.6914-.5935-.0701-.4442-.1636-.8978-.2662-1.3371v-.0003c-.0561-.1842-.0336-.3835.0619-.5511.0951-.1673.2554-.2883.4425-.3339.187-.0457.3847-.0121.5464.0926.1616.1043.2733.271.3085.4608.1166.4676.2147.9679.2897 1.4491.0293.1843-.0157.3724-.1252.5234-.1094.151-.2746.2518-.4587.2808zm-35.3631-3.3239c-.08113-.0003-.16193-.0144-.23818-.0421-.36361-.1317-.55193-.5335-.42031-.8974.16356-.4676.35026-.9349.55585-1.3696v-.0003c.07266-.1755.21342-.3138.39001-.3832.1766-.0698.37372-.0646.54673.014.17268.0786.30627.2237.37013.4027.06353.1787.05213.376-.03193.5463-.1867.4161-.35971.8413-.51382 1.2669-.09905.2785-.36297.464-.65848.4627zm34.2096-.7667c-.2845.0007-.5412-.1712-.6494-.4347-.1727-.4161-.3642-.8367-.5698-1.2388-.088-.1657-.1066-.3594-.0518-.5388.0547-.179.1785-.3293.3437-.4174.3444-.1832.7722-.0525.9553.2922.2242.4347.4297.8883.6164 1.3416v.0003c.0773.1738.0805.3714.0092.5478-.0714.1761-.2112.316-.3874.3871-.0838.0382-.1743.0591-.2662.0607zm-32.28117-3.0435c-.13652.001-.27011-.0398-.38317-.1167-.15607-.1005-.26554-.2593-.30398-.4409-.03878-.182-.00326-.3714.09839-.5267.27076-.4115.55585-.8182.85462-1.2062h.00032c.2372-.3072.67868-.3639.98557-.1262.30692.2374.36329.679.12609.9864-.27564.36-.5464.7341-.79402 1.1127-.12902.1973-.3483.317-.58386.3176zm30.20677-.6965c-.2251-.0007-.4366-.1083-.5699-.2896-.2662-.3741-.5513-.7341-.8406-1.0801h-.0003c-.2502-.2958-.2134-.7383.0818-.9888.2955-.2504.7376-.2139.9879.0819.3131.374.6213.7621.9061 1.1641v-.0003c.1098.15.1554.3372.1264.5208s-.13.3479-.2805.4565c-.1186.0884-.263.1357-.4109.1354zm-27.5026-2.571c-.2841-.0059-.537-.183-.6393-.4487-.1026-.2655-.0345-.5668.1724-.76214.3551-.34143.7285-.66851 1.1071-.97699l-.0004-.00033c.1401-.14772.3373-.22729.5402-.21816.2034.00913.3923.1063.5184.26577.1261.15979.1766.36654.1385.56644-.0385.1999-.1613.37339-.3376.47541-.3502.2851-.6959.589-1.0276.9024v-.0003c-.1264.1236-.2952.1937-.4717.1966zm24.63-.5564c-.1711-.0009-.3366-.0622-.4673-.1731-.3362-.2994-.6959-.58439-1.0651-.85538h.0003c-.3088-.23251-.3734-.67013-.145-.98191.2288-.3049.6595-.36947.9671-.14479.3972.28991.78.60296 1.1491.93491.2245.19208.3047.50481.1997.78137-.1045.2768-.3714.4578-.6669.4529zm-21.2244-2.01496c-.3183.00228-.5982-.21001-.6816-.51753-.0834-.30751.0508-.63263.3268-.79145.4297-.24784.864-.46763 1.3032-.69199h-.0003c.3483-.16924.7676-.0238.9367.3248.1688.3486.0235.76829-.3245.9375-.4063.19632-.8126.41154-1.2098.64503h-.0003c-.1066.06066-.2274.09294-.3503.09359zm17.712-.38806c-.1137.0013-.2261-.02576-.3268-.07957-.3972-.21033-.8126-.40665-1.2332-.58437-.1867-.06098-.3395-.1973-.4207-.37632-.0814-.17903-.084-.38415-.0071-.56481.0769-.18099.2264-.32121.4115-.38675.1854-.06555.3893-.05022.5627.04239.4672.19175.9016.40665 1.3313.63101.2802.15131.4232.47219.3486.78166s-.348.52992-.6663.53677zm-13.8118-1.29948c-.3437-.00522-.6331-.25925-.6829-.59938-.0499-.34044.1544-.66687.4819-.77058.4672-.14022.9341-.26642 1.4013-.37404.378-.0838.7523.1549.836.53285.0841.37828-.1544.75297-.5323.83708-.4673.09815-.8921.21489-1.3264.34599v-.00033c-.058.01663-.1176.02609-.1776.02837zm9.809-.21979h-.0004c-.0567-.00098-.113-.00881-.1681-.02348-.4672-.11218-.892-.20577-1.3404-.28502-.1925-.02087-.3681-.12033-.4848-.2749-.1166-.1549-.1639-.35089-.131-.54198.0329-.1911.1434-.35969.3053-.46633.1616-.10663.3604-.1412.5487-.09619.4672.08413.9671.18686 1.4434.30392.3871.04794.6621.40046.6142.78786-.0476.38741-.4001.66264-.7872.61471zm-5.6194-.52828c-.3868.01141-.71-.29317-.7217-.68025-.0114-.3874.2929-.71057.6797-.72231.3877 0 .78-.02804 1.1677-.03261h.3036c.3858.0075.694.32415.6914.71058.0013.18718-.0736.36686-.2075.4973-.1342.13076-.3157.20087-.5024.19435h-.2848c-.3457 0-.724 0-1.0836.03261z"/><path d="m24.8841 31.1653v3.4567-.0004c0 .5112-.4131.9265-.9239.9294-.5134 0-.929-.416-.929-.9294v-3.5239"/><path d="m23.0315 15.3048v-3.4567c-.0058-.2498.0898-.4917.2646-.6705.1749-.1785.4142-.2795.6644-.2792.5108.0026.9239.4178.9239.929v3.519"/><path d="m28.9032 18.0092c-1.3594-1.27-3.1384-1.9959-4.9982-2.0397-1.9908.0351-3.8894.8453-5.2919 2.2583-1.4025 1.4134-2.1983 3.3181-2.2182 5.3088.0232 1.9228.8178 3.7555 2.2059 5.0863 1.4166 1.3854 3.2981 2.1939 5.278 2.2681 1.8022-.0626 3.531-.7277 4.91-1.8891.4026-.3352.8544-.6064 1.3391-.8048.8512 0-.7059 1.6248-.7059 1.6248-1.5344 1.3112-3.4832 2.0375-5.5015 2.0498-4.5776 0-8.5689-3.8198-8.5689-8.4183.03-2.2573.9485-4.4118 2.5566-5.9964 1.6079-1.5846 3.7757-2.4716 6.033-2.4687 2.0295.0054 3.9841.7679 5.4808 2.1385 0 0 .7317.7266.7317.8978-.0257.8461-1.152.0985-1.2504-.0155z"/><path d="m23.9208 32.1326c-2.3109-.013-4.5258-.9268-6.1738-2.5472-1.6476-1.6208-2.5979-3.8202-2.6493-6.1306.026-2.3228.967-4.5418 2.6189-6.1752 1.6516-1.6335 3.881-2.5495 6.2042-2.5491 2.086.0087 4.0942.7954 5.6314 2.2055.8149.8095.8149 1.0068.8149 1.0901.0283.2549-.1071.5-.3374.6126-.5191.223-1.3442-.4309-1.3493-.4414-1.311-1.2255-3.0277-1.9256-4.8219-1.9669-1.9155.0416-3.7391.8283-5.084 2.1924-1.345 1.3646-2.1056 3.1994-2.1197 5.1152.0196 1.8532.7867 3.62 2.1277 4.8993 1.3678 1.3378 3.1851 2.1169 5.0967 2.1849 1.7396-.0619 3.4078-.7053 4.7386-1.8268 0 0 1.1057-.8668 1.5105-.8668.1994-.0238.3913.0859.4721.2698.1868.4308-.4515 1.2145-1.038 1.7957-1.5708 1.3536-3.5683 2.111-5.6416 2.1385zm0-16.8836c-2.6859-.0159-5.209 1.2867-6.7509 3.486-1.5423 2.1997-1.9068 5.0156-.976 7.535.9311 2.5198 3.0389 4.4223 5.6404 5.091 2.6016.6687 5.3658.0181 7.396-1.7403.3429-.3349.6347-.7175.8667-1.1368-.404.1944-.7852.4326-1.1368.711-1.4271 1.2009-3.2166 1.8865-5.0811 1.9463-2.0466-.0702-3.9932-.9011-5.4598-2.3304-1.442-1.3772-2.2656-3.2794-2.2838-5.2731.016-2.0567.8342-4.0259 2.2808-5.4877 1.4463-1.4619 3.4068-2.3011 5.4627-2.3391 1.9318.0391 3.7804.7914 5.1901 2.1125.1506.135.6694.3997.7889.3374.0109-.0445.0109-.0909 0-.135-.2049-.2487-.4232-.4859-.6538-.7111-1.4362-1.3192-3.3126-2.056-5.2629-2.0657z"/></g></svg>