<svg fill="none" height="55" viewBox="0 0 48 55" width="48" xmlns="http://www.w3.org/2000/svg"><path d="m23.8881 55c-.2701.0004-.5372-.0526-.7866-.1565l-.0014-.0009c-2.8916-1.272-5.6276-2.8719-8.1535-4.7686-15.349519-10.9733-15.04758-33.2851-14.9184986-42.81359.0078921-.57656.0149075-1.10973.0184151-1.59208h-.0004384c.0021922-.41478.1332909-.81816.3748749-1.15533.241147-.33718.581397-.59104.973377-.72653 7.24159-2.47287 14.83657-3.7514496 22.48937-3.78647 7.655.033761 15.253 1.3127 22.4973 3.78647.3919.13548.7326.38935.9742.72609.2416.33717.3727.74099.3749 1.15578.0035.48231.0105 1.01591.0184 1.59208.1289 9.52818.431 31.83938-14.9185 42.81358h-.0004c-2.526 1.8967-5.2619 3.4966-8.1536 4.7686-.2499.1039-.5182.1574-.7888.1574zm-.029-1.9691c.0193.0057.0395.0057.0588 0 2.7574-1.2124 5.3654-2.7408 7.7703-4.5547 14.5133-10.3757 14.2215-31.9685 14.0969-41.18825-.0079-.58227-.0149-1.11939-.0184-1.60566-2.8386-.99399-5.7429-1.78807-8.6921-2.3769-4.3437-.8699-8.7608-1.31888-13.191-1.34077-7.4357.03464-14.8163 1.27814-21.85293 3.6813-.02323.52263-.03025 1.05975-.0377 1.64203-.12497 9.21995-.41742 30.81345 14.09683 41.18825h-.0004c2.4049 1.8139 5.0128 3.3423 7.7703 4.5547z" fill="#000"/><g fill="#180eff"><path d="m23.8871 50.8004c-.146 0-.2899-.0324-.4214-.0951-2.1906-1.0821-4.2771-2.3624-6.2344-3.8251-13.66695-9.7697-13.38746-31.0705-13.28307-39.09041v.00044c.0057-.42706.28632-.8015.69452-.92646 2.112-.6476 4.28023-1.19698 6.44485-1.63148 4.2193-.84579 8.5104-1.28206 12.8139-1.3026 4.2934.02148 8.5749.45731 12.7847 1.3026 2.1616.43451 4.3293.98389 6.4453 1.63238.4082.1254.6884.49983.6941.92646.1052 8.01807.3841 29.31947-13.2819 39.08817-1.9569 1.4631-4.0443 2.7438-6.2354 3.826-.1315.0627-.2753.0951-.4213.0951zm-17.98279-42.26467c-.10654 8.82387-.01096 27.82547 12.46929 36.74677 1.7416 1.2961 3.5852 2.4479 5.5136 3.4441 1.9288-.9962 3.7729-2.148 5.514-3.4449 12.4805-8.9209 12.5759-27.9209 12.4693-36.74451-1.8354-.54106-3.7063-1.00319-5.5711-1.37803l-.0004-.00044c-4.082-.81904-8.2337-1.24255-12.3974-1.2641-4.1733.0206-8.3351.44415-12.4267 1.2641-1.86739.37532-3.73784.83834-5.57058 1.37725z"/><path d="m21.4529 32.7058c-.8353.0026-1.6368-.3293-2.2256-.9221l-4.6784-4.6774h.0005c-.8634-.869-1.1988-2.1318-.8805-3.3143.3183-1.1829 1.2421-2.1068 2.4247-2.425 1.183-.3183 2.4457.0171 3.3143.8804l2.066 2.066 6.9008-6.9008c.6419-.6459 1.5144-1.0094 2.4247-1.0102h.0092c.9067-.0027 1.7771.3573 2.4168 1.0005.641.645.9996 1.5179.9983 2.4269-.0017.9093-.3643 1.781-1.0076 2.4233l-9.5233 9.5233c-.5906.5942-1.3938.9282-2.2317.9282zm-4.4618-9.4934c-.5936-.0005-1.1294.3551-1.3596.9023-.2297.5472-.1092 1.179.3065 1.6025l4.6788 4.6775h.0005v.0004c.2209.2228.5217.3473.8356.3464h.0036c.3183-.0009.6234-.128.8475-.3542l9.5233-9.5234v.0005c.5739-.5704.5779-1.4974.0092-2.0726-.2718-.2736-.6423-.4266-1.0277-.4253h-.004c-.3906.0004-.7655.1569-1.0404.4345l-7.5959 7.5954c-.1841.1841-.434.2876-.6945.2876-.2604 0-.5103-.1035-.6941-.2876l-2.7605-2.7606v.0005c-.2727-.2728-.6428-.4253-1.0282-.424z"/></g></svg>