<svg fill="none" height="45" viewBox="0 0 55 45" width="55" xmlns="http://www.w3.org/2000/svg"><path d="m44.4281 12.2376c-.7561-.0012-1.5098.085-2.2458.2567-.5974-1.2371-1.3106-2.4142-2.13-3.51647-2.2518-3.04889-5.2522-5.46546-8.711-7.01623-.0195-.0089-.0393-.0166-.0599-.02348h-.0073c-2.8521-1.277502-5.942-1.93812-9.0673-1.93812-3.125 0-6.2152.660618-9.0673 1.93812-5.24613 2.34776-9.37781 6.63779-11.52744 11.96778-2.149414 5.3307-2.149414 11.287 0 16.6175 2.14984 5.3307 6.28152 9.6203 11.52744 11.9689 2.8521 1.2771 5.9423 1.9377 9.0673 1.9377 3.1253 0 6.2152-.6606 9.0673-1.9377h.0064c.0211-.0081.0425-.0162.0636-.0263 3.4561-1.5504 6.4539-3.9658 8.7046-7.0126.8201-1.1034 1.5338-2.2819 2.1316-3.5201.7371.1704 1.4913.255 2.2478.253 3.5634 0 6.8559-1.9009 8.6377-4.987 1.7815-3.0861 1.7815-6.888 0-9.9741-1.7818-3.0861-5.0744-4.987-8.6377-4.987zm-3.9779.8343c-1.4386.6214-2.7076 1.5791-3.6993 2.7926h-2.9842c-.125-1.8134-.3092-3.6269-.544-5.4403h5.6326c.5999.8395 1.1331 1.7248 1.5949 2.6477zm-26.148-9.65951c2.2211-.94236 4.594-1.47709 7.0045-1.57864v6.77695h-7.9646c.2773-1.77336.5946-3.51645.9601-5.19831zm15.8776.02996c.3627 1.70537.6793 3.43749.9493 5.16836h-8.0092v-6.77696c2.4316.10161 4.8243.64686 7.0599 1.6086zm-8.8734 6.98185v3.6269h1.8135v-3.6269h8.2731c.2429 1.8134.427 3.6269.5558 5.4404h-19.4248c.1279-1.8082.3121-3.627.5542-5.4404zm16.0973-1.81349h-4.4377c-.2129-1.39284-.4622-2.78289-.7371-4.16568 1.9426 1.0945 3.6908 2.50206 5.1748 4.16568zm-25.1542-4.192c-.2757 1.37305-.5238 2.77035-.7445 4.192h-4.48304c1.49854-1.67709 3.26474-3.09346 5.22754-4.192zm-10.40206 18.69939h1.77823v-1.8135h-1.77823c.16152-3.9123 1.45844-7.6934 3.73294-10.8807h5.67142c-.2384 1.8134-.4226 3.6386-.544 5.4484-2.05387.0607-3.92723 1.1881-4.94329 2.974-1.01562 1.7859-1.02696 3.9726-.02955 5.7687.9974 1.7964 2.85947 2.9428 4.91254 3.0249.1259 2.1199.3319 4.2479.6104 6.3588h-5.67759c-2.27408-3.1877-3.57142-6.9683-3.73287-10.8806zm28.33246 17.8631c-2.2356.9618-4.6283 1.507-7.0599 1.6086v-6.777h8.01c-.2712 1.7317-.5849 3.463-.9501 5.1684zm-15.8776.0299c-.3627-1.6818-.6829-3.4257-.9594-5.1983h7.9639v6.777c-2.4105-.102-4.7834-.6367-7.0045-1.5787zm8.818-7.0117v-4.5337h-1.8135v4.5337h-8.227c-.2829-2.1053-.4886-4.2301-.6173-6.3471h19.5439c-.1344 2.1182-.3392 4.2425-.6165 6.3471zm-16.09838 1.8134h4.48388c.2178 1.4237.4655 2.8211.7436 4.192-1.9624-1.0986-3.72894-2.5153-5.22748-4.192zm25.20708 4.1657c.2721-1.382.5242-2.7708.7372-4.1657h4.4385c-1.4835 1.6649-3.2323 3.0724-5.1757 4.1657zm6.6245-5.9791h-5.6371c.272-2.1074.4776-4.2301.6104-6.3471h2.2596c1.0601 1.6365 2.5789 2.9242 4.3669 3.7022-.4639.9217-.9987 1.8062-1.5998 2.6449zm5.5747-3.6269c-.8379.0024-1.6709-.1272-2.4679-.3846-1.9426-.6112-3.5849-1.9305-4.6001-3.6957-.0231-.0296-.0478-.0579-.0741-.0842-.0672-.0992-.1583-.1797-.2651-.234-.0482-.0299-.0996-.0546-.153-.0745-.0591-.0186-.1199-.0311-.1814-.0372-.0364-.0101-.0732-.0182-.1105-.0235h-25.6973c-1.45756 0-2.8047-.7776-3.53382-2.0402-.72861-1.2626-.72861-2.8177 0-4.0803.72904-1.2626 2.07616-2.0402 3.53382-2.0402h26.3046c.0218 0 .04-.0109.0607-.0125.0639-.0053.1271-.0178.1878-.0373.0526-.0133.104-.0315.1534-.0546.0494-.0251.0964-.0555.1397-.0907.0498-.036.0963-.0773.1376-.123.0146-.0174.0344-.0255.0482-.0425 1.0132-1.3674 2.4356-2.3766 4.0612-2.8809.7934-.2571 1.6224-.3874 2.4563-.3854 2.9153 0 5.6096 1.5552 7.0672 4.0803 1.4576 2.525 1.4576 5.6355 0 8.1606-1.4576 2.525-4.1519 4.0804-7.0673 4.0804z" fill="#000"/><g fill="#180eff"><path d="m13.3338 19.7575c-.3542-.3538-.9282-.3538-1.2824 0l-.7189.7189-.7189-.7189c-.3558-.3436-.92128-.3384-1.27106.0114-.34978.3497-.355.9152-.01133 1.271l.71889.719-.71889.7189c-.17487.1692-.27445.4011-.27648.6444-.00243.2433.09351.4772.26555.6489.17162.172.4056.2679.64887.2655.24325-.002.47525-.1016.64445-.2765l.7189-.7189.7189.7189c.3558.3437.9213.3384 1.2711-.0113s.355-.9152.0113-1.2711l-.7189-.7189.7189-.7189c.3538-.3542.3538-.9282 0-1.2824z"/><path d="m19.6815 19.7575c-.3542-.3538-.9282-.3538-1.2824 0l-.7189.7189-.7189-.7189c-.3558-.3436-.9213-.3384-1.2711.0114-.3498.3497-.355.9152-.0113 1.271l.7189.719-.7189.7189c-.1749.1692-.2745.4011-.2765.6444-.0024.2433.0935.4772.2655.6489.1717.172.4056.2679.6489.2655.2433-.002.4752-.1016.6444-.2765l.7189-.7189.719.7189c.3558.3437.9213.3384 1.271-.0113.3498-.3497.355-.9152.0114-1.2711l-.7189-.7189.7189-.7189c.3538-.3542.3538-.9282 0-1.2824z"/><path d="m26.0291 19.7575c-.3542-.3538-.9282-.3538-1.2823 0l-.719.7189-.7189-.7189c-.3558-.3436-.9213-.3384-1.271.0114-.3498.3497-.355.9152-.0114 1.271l.7189.719-.7189.7189c-.1748.1692-.2744.4011-.2765.6444-.0024.2433.0936.4772.2656.6489.1716.172.4056.2679.6489.2655.2433-.002.4752-.1016.6444-.2765l.7189-.7189.7189.7189c.3558.3437.9213.3384 1.2711-.0113s.355-.9152.0113-1.2711l-.7189-.7189.7189-.7189c.3538-.3542.3538-.9282 0-1.2824z"/><path d="m32.3768 19.7575c-.3542-.3538-.9282-.3538-1.2824 0l-.7189.7189-.7189-.7189c-.3558-.3436-.9213-.3384-1.2711.0114-.3498.3497-.355.9152-.0113 1.271l.7189.719-.7189.7189c-.1749.1692-.2745.4011-.2765.6444-.0024.2433.0935.4772.2655.6489.1717.172.4056.2679.6489.2655.2433-.002.4752-.1016.6445-.2765l.7189-.7189.7189.7189c.3558.3437.9213.3384 1.2711-.0113.3497-.3497.355-.9152.0113-1.2711l-.7189-.7189.7189-.7189c.3538-.3542.3538-.9282 0-1.2824z"/><path d="m44.4243 15.2891c-1.2019.0016-2.3543.4796-3.2044 1.3293-.8496.85-1.3276 2.0025-1.3293 3.2043v7.2539c0 .2404.0956.4711.2656.6411.17.1701.4007.2656.6412.2656h7.2538c.2404 0 .4712-.0955.6412-.2656.17-.17.2655-.4007.2655-.6411v-7.2539c-.0016-1.2018-.4796-2.3543-1.3293-3.2043-.85-.8497-2.0025-1.3277-3.2043-1.3293zm0 1.8134c.7213 0 1.4135.2866 1.9235.7967.5099.51.7966 1.2022.7966 1.9235h-5.4404c0-.7214.2866-1.4136.7967-1.9235.51-.51 1.2022-.7967 1.9235-.7967zm2.7202 9.0673h-5.4404v-4.5336h5.4404z"/><path d="m44.4302 25.2648c.2413.0024.4732-.0923.644-.2627.1705-.1708.2652-.4028.2628-.644-.0033-.2401-.0972-.47-.2632-.6436-.0445-.0413-.0931-.0778-.1449-.1089-.0465-.0361-.0983-.0636-.1542-.0818-.0542-.0275-.1129-.0457-.1733-.0542-.1129-.0272-.2307-.0272-.3436 0-.0599.0085-.1182.0267-.1721.0542-.0578.0202-.1133.0474-.1643.0818-.047.0336-.0919.07-.1348.1089-.1664.1732-.2603.4035-.2631.6436-.0024.2412.0923.4732.2627.644.1708.1704.4028.2651.644.2627z"/></g></svg>