<svg fill="none" height="58" viewBox="0 0 55 58" width="55" xmlns="http://www.w3.org/2000/svg"><g stroke-width="2"><path d="m15.6055 7.88848v-1.88848c0-2.76142 2.2385-5 5-5h28.0244c2.7614 0 5 2.23858 5 5v35.5043c0 1.3695-1.1103 2.4798-2.4799 2.4798m-35.5445-3.8575v.8266c0 1.6739 1.357 3.0309 3.0309 3.0309m0 0h32.5136m-32.5136 0 2.4799.5706m30.0337-.5706-.3987 2.0731c-.5348 2.7814-3.2709 4.5636-6.0311 3.9285l-.4587-.1055m-23.1452-5.3255 23.1452 5.3255m-23.1452-5.3255 2.4798 1.1571m20.6654 4.1684c-1.0533 2.4981-3.9707 3.6216-6.4275 2.4752l-.7365-.3436m0 0c-1.6566 2.6044-5.3459 2.8981-7.3936.5885l-6.1078-6.8885m13.5014 6.3-13.5014-6.3" stroke="#000"/><g stroke="#180eff"><path d="m8.16402 18.3584h19.84088c1.8688 0 2.7167-2.3352 1.2831-3.5341l-9.6219-8.04747c-.7532-.62999-1.8524-.61994-2.594.02372l-9.98723 8.66815c-1.15055.9986-.44431 2.8897 1.07915 2.8897zm0 0v13.777m3.58198-13.777v13.777m4.6842-13.777v13.777m4.1331-13.777v13.777m4.4086-13.777v13.777m4.1331-13.777v13.777m3.3065 3.582v-1.582c0-1.1046-.8954-2-2-2h-24.65611c-1.10457 0-2 .8954-2 2v1.582m28.65611 0h-28.65611m28.65611 0h1.0309c1.1046 0 2 .8954 2 2v.4086c0 1.1046-.8954 2-2 2h-30.4424c-1.10457 0-2-.8954-2-2v-.4086c0-1.1046.89543-2 2-2h.75539"/><circle cx="18.3588" cy="12.847" r="1.47985"/><path d="m49.7675 7.33701s-2.1029-.00001-3.582-.00002m-3.8574 9.91941s2.2042.0001 3.8574.0498m0 0c1.6533 0 3.031 0 3.031-3.0806 0-1.6532-1.3777-1.9289-3.031-1.9289-1.6532 0-3.3064-.5508-3.3064-2.47971 0-1.92895 1.1021-2.47998 2.2043-2.47999.2577-.00001.6509-.00001 1.1021-.00001m0 9.96921v2.7057m0-12.67491v-2.20418"/></g></g></svg>