<svg fill="none" height="46" viewBox="0 0 60 46" width="60" xmlns="http://www.w3.org/2000/svg"><path d="m35.7422 15.6711-4.3379-2.9271c-.2282-.1539-.5101-.2061-.7787-.1445-.2682.062-.4987.2327-.6365.4711l-3.5609 6.1675-6.1029-2.1244c-.4503-.1565-.9512.0297-1.1883.445l-3.4763 6.0842-4.2953-2.4803c-.476-.2752-1.0824-.1117-1.3563.3635l-2.48208 4.2989-2.57911-1.4893c-.22959-.1329-.50528-.1666-.76146-.0966-.25708.0709-.47426.2425-.60324.4752l-3.45848 6.242c-.265944.48-.0926354 1.0842.386946 1.3497.15292.0856.317798.1255.480465.1255.349709 0 .687899-.1849.869179-.5115l2.96876-5.3583 2.56413 1.4804c.22782.1312.49951.1671.75349.0989.25441-.0679.47115-.2345.60323-.4623l2.48207-4.299 4.299 2.4821c.2295.1326.5017.1685.7552.0984.2549-.0687.4721-.2367.6033-.4658l3.5623-6.2332 6.0997 2.1231c.4481.1551.9468-.0288 1.1861-.441l3.4386-5.9566 4.565 3.0804z" fill="#180eff"/><path d="m35.7425 35.4099h-10.9212v-12.9069c0-.5483-.4446-.9929-.9929-.9929s-.9928.4446-.9928.9929v12.9069h-8.9356v-8.9356c0-.5483-.4445-.9928-.9928-.9928s-.9928.4445-.9928.9928v8.9356h-10.92125c-.548273 0-.99283712.4445-.99283712.9928s.44456412.9928.99283712.9928h34.74935z" fill="#180eff"/><path clip-rule="evenodd" d="m36.7389.164062c-.5482 0-.9928.444565-.9928.992838v14.5136l.0007 2.3965-.0004 17.3423v1.9856 7.4463c0 .5483.4445.9929.9928.9929 12.5915 0 22.8353-10.244 22.8353-22.8353s-10.2442-22.834738-22.8356-22.834738zm2.7986 7.713518c-.2633-.04831-.5301-.08687-.7978-.12189-.234-.03058-.4687-.05981-.7063-.07976-.0997-.00842-.2017-.00931-.3018-.01551v5.27808c.2788-.0426.5607-.0714.847-.0714 2.2123 0 4.2134 1.3097 5.099 3.3366.2198.5026-.0102 1.0881-.5124 1.3075-.1294.0563-.2642.0829-.3971.0833-.3825 0-.7473-.2229-.9104-.5957-.5691-1.3035-1.8562-2.1461-3.279-2.1461-.2899 0-.5713.0439-.847.1108v6.9322c.2757.0673.5571.1108.847.1108.0949 0 .187.0137.2744.0394 2.7599.325 4.9079 2.6785 4.9079 5.5241 0 3.0671-2.4954 5.5625-5.5625 5.5625-.1569 0-.3107-.0249-.4663-.0377v5.2443c.1002-.0066.2021-.0071.3018-.0155.2372-.0199.4716-.0492.7057-.0798.2681-.035.535-.0736.7987-.1223.2318-.043.4609-.0931.6888-.1463.2579-.0603.5137-.125.7663-.1977.2247-.0647.4468-.1352.6671-.2101.2468-.0837.4911-.1728.7322-.2686.2154-.0855.429-.1755.6396-.2703.2353-.1064.4667-.2185.6958-.336.2052-.105.4087-.2132.6081-.3271.223-.1272.4406-.2615.6565-.3993.1928-.1233.3851-.2483.5722-.3799.2092-.1472.4126-.3018.6139-.4592.1799-.1405.3594-.2814.5327-.4295.195-.1662.3821-.3408.5683-.5163l.0153-.0145c.1602-.1507.3202-.3013.4735-.4589.1795-.1853.3497-.3785.5199-.5722.149-.1689.2988-.3364.4402-.512.1631-.2025.3147-.4139.4676-.6249.1316-.1813.2655-.3604.3891-.5474.145-.2198.2771-.4481.4109-.6755.113-.1915.2296-.3798.3342-.5762.1263-.238.2376-.4844.3519-.7295.0922-.1982.1906-.3923.2744-.5949.1068-.2575.1959-.5239.289-.7885.0705-.2003.1485-.3967.211-.6005.0864-.2824.152-.5727.222-.8612.0475-.196.1051-.3879.145-.5869.0656-.3266.1072-.6613.152-.9946.0226-.168.0572-.3329.074-.5026.0505-.5071.078-1.0212.078-1.5416s-.0275-1.0345-.078-1.542c-.0168-.1698-.0514-.3346-.074-.5031-.0443-.3333-.0864-.6675-.152-.9937-.0399-.1994-.0975-.3918-.1454-.5882-.07-.288-.1356-.5779-.2216-.8598-.0621-.2039-.1405-.4003-.211-.6006-.0931-.2646-.1822-.531-.289-.7885-.0838-.2026-.1822-.3967-.2744-.5948-.1143-.2451-.2256-.492-.3519-.7296-.1046-.1968-.2216-.3852-.3342-.5766-.1338-.227-.2655-.4552-.4104-.6746-.1237-.1875-.258-.3666-.3896-.5483l-.0201-.0277c-.1458-.2014-.2916-.4027-.4471-.5964-.1414-.1755-.2916-.343-.4401-.5123-.1702-.1937-.3404-.3874-.5199-.5723-.1583-.1626-.324-.3177-.4889-.4733-.1866-.1755-.3737-.3502-.5682-.5164-.1738-.148-.3533-.289-.5332-.4295-.2013-.1569-.4043-.3116-.613-.4587-.1875-.1317-.3799-.2571-.5736-.3808-.2154-.13737-.433-.27123-.6555-.39843-.1999-.11391-.4033-.22206-.6086-.32711-.2287-.11745-.4605-.23003-.6958-.33596-.2106-.09485-.4242-.18483-.6396-.27037-.2411-.09575-.4853-.18483-.7322-.2686-.2207-.07447-.4428-.14539-.6675-.2101-.2522-.07268-.5075-.1374-.765-.19724-.2287-.05319-.4583-.10372-.6906-.14671zm-1.6107 16.07692c-.0369-.0042-.073-.0123-.1092-.0204-.0284-.0064-.0569-.0128-.0858-.0173v7.1918c.1542.0199.3089.0372.4663.0372 1.9723 0 3.5768-1.6049 3.5768-3.5768 0-1.9723-1.6049-3.5768-3.5768-3.5768-.094 0-.1849-.0133-.2713-.0377zm-.195 16.3914v3.4799c11.0377-.5197 19.8568-9.6621 19.8568-20.8258 0-11.1644-8.8195-20.30738-19.8568-20.82685v3.47981c.075.00415.1486.01341.2222.02267.06.00756.12.0151.1807.01988.2748.02216.5461.05186.8169.08643.2992.03812.5952.08288.8895.13607.266.04832.5293.10239.7908.16267.2899.06692.5757.1405.8594.22161.2566.07313.5102.15026.7619.23491.2788.09398.5532.19547.8253.30273.2447.09619.4875.19503.7269.30229.2673.11923.5279.24777.7876.37985.2327.11835.4632.23758.6897.36612.2531.1436.4991.29652.7442.45254.2185.13873.4357.27746.6475.4255.238.16666.4681.34351.6972.52169.0157.01221.0315.02442.0472.03662.1872.14545.374.29052.5547.44429.2221.18926.4344.38827.6467.58817.0324.0306.0649.0611.0974.0915.1534.1441.3065.2879.4535.4386.1927.1976.3747.4043.5572.6115.0115.013.023.0261.0346.0392.0336.0382.0673.0762.1011.1142.1345.1517.2686.303.3962.4611.1665.2061.3216.4204.4772.6353.0183.0253.0367.0507.0551.0761.0374.0516.0751.1029.1128.1542.1108.151.2215.3018.3251.4583.14.2113.2687.4303.3975.6493.0241.0409.0482.0819.0723.1228.0359.0609.0723.1214.1087.1819.0915.1522.183.3044.2667.4617.1177.2202.2231.4475.3286.6749.0244.0527.0489.1053.0734.1579.0321.0686.0648.1368.0976.2049.0728.1517.1457.3033.2105.4595.0995.2387.1849.4839.2704.7291.0196.0562.0392.1124.0589.1685.0269.0763.055.1522.083.2281.0546.1478.1092.2955.1555.4469.0807.2636.1453.5334.2099.8033.0142.0592.0284.1184.0427.1776.0197.0813.0411.162.0625.2427.0362.1368.0725.2737.1006.4137.0659.3268.1103.6609.1547.9949.0057.0433.0115.0867.0173.13.0104.0774.023.1541.0356.2307.0185.1126.037.2252.0486.3402.0572.5736.0882 1.1551.0882 1.7437 0 .5885-.0306 1.17-.0882 1.7431-.0114.1154-.03.2285-.0486.3416-.0126.0765-.0252.153-.0356.2302-.0057.0423-.0113.0846-.0169.1269-.0445.3349-.089.6693-.1551.9971-.0282.1387-.0641.2745-.1.4104-.0218.0821-.0435.1642-.0635.247-.0146.0599-.029.1199-.0433.1799-.0645.2688-.1289.5377-.2094.8-.0461.1513-.1006.2988-.155.4463-.0255.0691-.0512.1386-.0758.2081-.0026.0072-.0051.0144-.0076.0216-.0196.0557-.0391.1114-.0585.1671-.0856.2455-.1711.4908-.2704.7295-.0658.1589-.1398.313-.2139.4672-.0318.066-.0635.1321-.0946.1986-.0213.0456-.0425.0913-.0636.137-.1086.2342-.2171.4684-.338.6953-.0843.1579-.176.3105-.2677.4632-.036.06-.0721.12-.1077.1804-.024.0407-.048.0815-.0719.1222-.1289.2193-.2578.4384-.3979.6499-.1035.1564-.2142.3072-.325.4581-.0377.0514-.0755.1028-.1129.1545-.0222.0304-.0443.0609-.0664.0914-.1518.2095-.3035.4188-.4659.6199-.1272.1576-.2611.3086-.395.4597-.0342.0385-.0683.077-.1024.1157l-.0348.0395c-.1824.207-.3643.4136-.5569.6111-.1505.1547-.3073.3017-.4644.4489-.0288.0271-.0577.0541-.0865.0812-.2123.1999-.4246.3989-.6467.5882-.1774.1513-.3614.2941-.5457.4372-.0187.0146-.0375.0291-.0562.0437-.2291.1782-.4587.355-.6972.5217-.2119.148-.429.2868-.6475.4255-.2452.1556-.4911.3089-.7442.4525-.2265.1286-.4579.2482-.6906.367-.2593.1317-.5194.2598-.7858.379-.2398.1072-.4832.2061-.7283.3027-.2721.1068-.546.2088-.8248.3023-.2518.0847-.5053.1618-.7619.2349-.2841.0811-.57.1551-.8594.2216-.2616.0603-.5248.1144-.7908.1627-.2943.0532-.5904.0979-.8895.1361-.2708.035-.5425.0647-.8169.0864-.0607.0048-.1207.0123-.1807.0199-.0736.0092-.1472.0185-.2222.0226z" fill="#000" fill-rule="evenodd"/></svg>