<svg fill="none" height="59" viewBox="0 0 61 59" width="61" xmlns="http://www.w3.org/2000/svg"><g fill="#202024"><path clip-rule="evenodd" d="m22.9871 31.0088c-.7805-.5932-1.72-.9416-2.6988-.9997l-3.2978-1.6431v-1.1612c1.3971-.6785 2.5904-1.7133 3.4597-3.0005.8692-1.2874 1.3833-2.7812 1.4904-4.3305.8683-.2142 1.6396-.7132 2.1918-1.4167.5518-.7036.8525-1.572.8534-2.4662v-6.99594c-.0013-1.32472-.5283-2.59504-1.4654-3.53158-.9369-.93698-2.2068-1.46404-3.5315-1.46575l.5998-.79935c.2987-.39822.4375-.89305.3907-1.38833-.0473-.49525-.2769-.95496-.645-1.289593-.3681-.335051-.8475-.520357-1.3452-.520357h-8.99493c-2.38473.0025098-4.67105.951193-6.35718 2.63734-1.68655 1.68655-2.63476 3.97298-2.637762 6.3576v6.99596c.001252.8943.302002 1.7626.853732 2.4662.55173.7035 1.32344 1.2025 2.19188 1.4167.10708 1.5494.62116 3.0431 1.48995 4.3305.86921 1.2871 2.06305 2.322 3.46005 3.0005v1.1612l-3.29825 1.6472c-1.26786.0745-2.46001.63-3.33295 1.5527-.87255.9232-1.3607 2.1441-1.364445 3.4146v9.9942c-.551722 0-.999295.4476-.999295.9993 0 .5521.447573.9997.999295.9997h21.988305 1.9982l-.3209-13.7417zm-10.994 6.9699c0-.5522.4476-.9997.9993-.9997.2652 0 .5197.1053.7071.2927s.2928.4417.2928.7069l-.0004 2.8904c3.232-.6847 4.3765-4.6706 4.7764-7.369l-.6785.6387c-.5688.5375-1.3226.8366-2.1052.8345-.7831-.0017-1.5352-.3045-2.1015-.8449l-.8906-.7994-.9144.8299c-.5588.5325-1.3029.827-2.0747.8215-.78855.0042-1.54772-.2978-2.11701-.8432l-.6655-.6258c.40649 2.6984 1.55099 6.6801 4.77221 7.3657zm3.2551-5.306c.4012.4003 1.0475.4111 1.4612.0238l1.5538-1.4603-2.0726-1.0365-1.748 1.7456zm3.7409-30.67356h-8.99498c-1.85467.00203-3.63288.73995-4.94421 2.05171-1.31132 1.31133-2.04919 3.08955-2.0517 4.94422v2.17173c.16188-.0598.32919-.1041.49986-.133.79519-.1313 1.60959.0602 2.26255.5329.65631-.9592 1.67316-1.61129 2.81841-1.8083 1.35277-.12133 2.64157-.63167 3.70987-1.46993.3902-.39026 1.0231-.39026 1.4134 0 1.0675.83748 2.355 1.3482 3.7069 1.46993 1.1452.19703 2.1617.8492 2.8184 1.8083.6521-.4718 1.4653-.6638 2.2596-.5329.1703.0289.3376.0732.4999.133v-2.17173c0-.7952-.3162-1.55774-.8784-2.12034-.5622-.56219-1.3247-.878-2.1199-.878h-4.9974c-.5521 0-.9992-.44757-.9992-.99929 0-.55214.4471-.99971.9992-.99971h2.4985zm-13.2854 16.28326c.1874.1874.29281.4417.29281.7065 0 .2831.11709 6.9963 6.99629 6.9959 6.8788 0 6.9959-6.7102 6.9959-6.9959 0-.5518.4472-.9993.9993-.9993.53 0 1.0386-.2104 1.4134-.5856.3748-.3748.5856-.883.5856-1.4134v-1.892c.0188-.5132-.3258-.9691-.8249-1.0912-.2932-.0532-.5948.0284-.8215.2221-.2238.1899-.3526.4689-.3526.7625 0 .5517-.4476.9993-.9993.9993-.5521 0-.9997-.4476-.9997-.9993-.0034-.5413-.1966-1.0637-.5459-1.4774-.3492-.4133-.832-.6914-1.3649-.7856-1.4493-.1845-2.8427-.6776-4.0858-1.446-1.2427.7684-2.6361 1.2616-4.08542 1.446-.53289.0942-1.01602.3723-1.36487.7856-.34928.4137-.54253.9361-.54629 1.4774 0 .5517-.44716.9993-.9993.9993s-.9993-.4476-.9993-.9993c0-.2652-.10541-.5195-.2928-.7069-.1874-.1874-.44172-.2928-.70692-.2928-.05856.0004-.11712.005-.17484.015-.49902.1221-.84328.5781-.82445 1.0913v1.892c0 .5303.2104 1.0386.58561 1.4133.37477.3753.88299.5857 1.41338.5857.26479 0 .51911.1054.7065.2928zm9.2877 9.5207c-.6596.1205-1.3285.1811-1.999.1807-.6701.0004-1.3398-.0602-1.999-.1807v.7667l1.999 1.999 1.999-1.999zm-3.4521 4.1415-1.74511-1.7452-2.0697 1.0366 1.53803 1.4502c.40202.3903 1.03988.3944 1.44728.01zm-7.97014 1.2896c-.36851.5079-.56804 1.1185-.57096 1.7459l-.00018 9.9942h19.98908v-9.9943c-.0025-.6278-.2016-1.2393-.5701-1.748-.3681-.5083-.8868-.8885-1.4829-1.0863-.1146 1.5719-.4057 3.1264-.8675 4.633-1.2895 4.0549-3.7348 6.1966-7.0741 6.1966-3.33884 0-5.78461-2.1417-7.07378-6.1966-.46179-1.5058-.75293-3.0589-.86754-4.63-.59566.1978-1.11392.5772-1.48202 1.0855z" fill-rule="evenodd"/><path d="m35.3729 33.0156h-.9997c-1.0713 0-2.0609.5718-2.5963 1.4992-.5359.9278-.5359 2.071 0 2.9983.5354.9278 1.525 1.4992 2.5963 1.4992h.9997c1.0713 0 2.0609-.5714 2.5963-1.4992.5359-.9274.5359-2.0706 0-2.9983-.5354-.9274-1.525-1.4992-2.5963-1.4992zm0 3.9976-.9997.0005c-.5517 0-.9993-.4476-.9993-.9998 0-.5517.4476-.9993.9993-.9993h.9997c.5517 0 .9993.4476.9993.9993 0 .5522-.4476.9998-.9993.9998z"/><path d="m44.3651 33.0156h-.9997c-1.0713 0-2.0609.5718-2.5963 1.4992-.5359.9278-.5359 2.071 0 2.9983.5354.9278 1.525 1.4992 2.5963 1.4992h.9997c1.0713 0 2.0609-.5714 2.5963-1.4992.5359-.9274.5359-2.0706 0-2.9983-.5354-.9274-1.525-1.4992-2.5963-1.4992zm0 3.9976-.9997.0005c-.5517 0-.9993-.4476-.9993-.9998 0-.5517.4476-.9993.9993-.9993h.9997c.5517 0 .9993.4476.9993.9993 0 .5522-.4476.9998-.9993.9998z"/><path d="m35.3729 41.0117h-.9997c-1.0713 0-2.0609.5714-2.5963 1.4992-.5359.9277-.5359 2.0705 0 2.9983.5354.9278 1.525 1.4991 2.5963 1.4991h.9997c1.0713 0 2.0609-.5713 2.5963-1.4991.5359-.9278.5359-2.0706 0-2.9983-.5354-.9278-1.525-1.4992-2.5963-1.4992zm0 3.9976h-.9997c-.5517 0-.9993-.4471-.9993-.9993 0-.5521.4476-.9993.9993-.9993h.9997c.5517 0 .9993.4472.9993.9993 0 .5522-.4476.9993-.9993.9993z"/><path d="m44.3651 41.0117h-.9997c-1.0713 0-2.0609.5714-2.5963 1.4992-.5359.9277-.5359 2.0705 0 2.9983.5354.9278 1.525 1.4991 2.5963 1.4991h.9997c1.0713 0 2.0609-.5713 2.5963-1.4991.5359-.9278.5359-2.0706 0-2.9983-.5354-.9278-1.525-1.4992-2.5963-1.4992zm0 3.9976h-.9997c-.5517 0-.9993-.4471-.9993-.9993 0-.5521.4476-.9993.9993-.9993h.9997c.5517 0 .9993.4472.9993.9993 0 .5522-.4476.9993-.9993.9993z"/><path d="m35.3729 49.0078h-.9997c-1.0713 0-2.0609.5714-2.5963 1.4992-.5359.9273-.5359 2.0705 0 2.9983.5354.9273 1.525 1.4991 2.5963 1.4991h.9997c1.0713 0 2.0609-.5718 2.5963-1.4991.5359-.9278.5359-2.071 0-2.9983-.5354-.9278-1.525-1.4992-2.5963-1.4992zm0 3.9976h-.9997c-.5517 0-.9993-.4476-.9993-.9993 0-.5521.4476-.9997.9993-.9997h.9997c.5517 0 .9993.4476.9993.9997 0 .5517-.4476.9993-.9993.9993z"/><path d="m44.3651 49.0078h-.9997c-1.0713 0-2.0609.5714-2.5963 1.4992-.5359.9273-.5359 2.0705 0 2.9983.5354.9273 1.525 1.4991 2.5963 1.4991h.9997c1.0713 0 2.0609-.5718 2.5963-1.4991.5359-.9278.5359-2.071 0-2.9983-.5354-.9278-1.525-1.4992-2.5963-1.4992zm0 3.9976h-.9997c-.5517 0-.9993-.4476-.9993-.9993 0-.5521.4476-.9997.9993-.9997h.9997c.5517 0 .9993.4476.9993.9997 0 .5517-.4476.9993-.9993.9993z"/><path d="m53.3612 49.0078h-.9997c-1.0713 0-2.0609.5714-2.5963 1.4992-.5359.9273-.5359 2.0705 0 2.9983.5354.9273 1.525 1.4991 2.5963 1.4991h.9997c1.0712 0 2.0609-.5718 2.5963-1.4991.5359-.9278.5359-2.071 0-2.9983-.5354-.9278-1.5251-1.4992-2.5963-1.4992zm0 3.9976h-.9997c-.5517 0-.9993-.4476-.9993-.9993 0-.5521.4476-.9997.9993-.9997h.9997c.5517 0 .9993.4476.9993.9997 0 .5517-.4476.9993-.9993.9993z"/><path d="m52.8615 33.0156c-.9278 0-1.8175.3685-2.4734 1.0248-.6563.6559-1.0248 1.5457-1.0248 2.4734v6.996c0 1.2498.6667 2.4047 1.7493 3.0296 1.0821.6245 2.4157.6245 3.4977 0 1.0825-.6249 1.7493-1.7798 1.7493-3.0296v-6.996c0-.9277-.3685-1.8175-1.0248-2.4734-.6559-.6563-1.5456-1.0248-2.4734-1.0248zm1.4991 10.4941c0 .8282-.6713 1.4992-1.4991 1.4992s-1.4992-.671-1.4992-1.4992v-6.9959c0-.8278.6714-1.4992 1.4992-1.4992s1.4991.6714 1.4991 1.4992z"/><path d="m54.3622 23.0234h-20.9882c-.53 0-1.0386.2104-1.4134.5857-.3748.3747-.5856.883-.5856 1.4133v3.9976c0 .53.2108 1.0387.5856 1.4134.3748.3748.8834.5856 1.4134.5856h20.9882c.53 0 1.0386-.2108 1.4134-.5856.3747-.3748.5856-.8834.5856-1.4134v-3.9976c0-.5304-.2108-1.0386-.5856-1.4133-.3748-.3753-.8835-.5857-1.4134-.5857zm0 5.9967h-3.584l-1.7062-1.7063c-.392-.3785-1.0156-.3731-1.4009.0126-.3856.3852-.3911 1.0085-.0121 1.4008l.2928.2928h-6.1685l-1.7062-1.7062c-.392-.3786-1.0157-.3732-1.4009.0125-.3857.3853-.3911 1.0085-.0121 1.4009l.2928.2928h-5.583v-3.9976h8.5813l1.7062 1.7062-.0004-.0004c.3924.379 1.0156.3735 1.4013-.0121.3853-.3853.3907-1.0089.0121-1.4009l-.2928-.2928h9.5806z"/></g><path clip-rule="evenodd" d="m54.3613 19.0245v-7.9956c0-1.06041-.4212-2.07723-1.1708-2.82681-.75-.74958-1.7669-1.17084-2.8268-1.17084h-17.9899c-1.0603 0-2.0771.42122-2.8267 1.17084-.75.74958-1.1713 1.76644-1.1713 2.82681v8.0855c-1.3954.2372-2.6628.96-3.5772 2.0409s-1.4171 2.45-1.4197 3.8659v5.0233 3.9712 9.9943l.0006 1.9994v6.9959c.0012 1.59.6337 3.1142 1.758 4.2386 1.124 1.1243 2.6486 1.7563 4.2386 1.7581h24.9856c1.5899-.0017 3.1141-.6338 4.2385-1.7581 1.1244-1.1244 1.7564-2.6486 1.7581-4.2386v-27.9839c-.0017-1.5899-.6337-3.1146-1.7581-4.2385-1.1244-1.1244-2.6489-1.7571-4.2389-1.7584zm-1.999 0v-7.9956c0-.53-.2097-1.03866-.5845-1.41345s-.8834-.58561-1.4134-.58561h-14.5482c.3597.60523.5513 1.29506.5555 1.99906v7.9956zm-18.5746-9.40905c-.3748-.37479-.8835-.58561-1.4134-.58561-.5304 0-1.0387.21082-1.4135.58561-.3752.37477-.5856.88345-.5856 1.41335v7.9957h3.9976v-7.9957c0-.5299-.2104-1.03856-.5851-1.41335zm-8.4104 15.40545v27.9839c.0029.97.3589 1.9057 1.0018 2.6319.6429.7265 1.528 1.1938 2.4905 1.3146-.962-1.0895-1.4928-2.493-1.4932-3.9465v-27.9839c.0004-1.4535.5311-2.8573 1.4932-3.9469-.9624.1209-1.8476.5885-2.4905 1.3146-.6429.7266-.9989 1.6623-1.0018 2.6323zm31.8106 30.8107c.7496-.7496 1.1708-1.7664 1.1708-2.8268v-27.9839c0-1.0603-.4212-2.0772-1.1708-2.8268-.7496-.75-1.7664-1.1712-2.8268-1.1712h-20.9882c-1.0603 0-2.0772.4212-2.8267 1.1712-.7497.7496-1.1709 1.7664-1.1709 2.8268v27.9839c0 1.0603.4213 2.0772 1.1709 2.8268.7495.7496 1.7664 1.1708 2.8267 1.1708h20.9882c1.0604 0 2.0772-.4212 2.8268-1.1708z" fill="#180eff" fill-rule="evenodd"/><path d="m39.3665 13.0264h9.9942c.5522 0 .9997-.4476.9997-.9998 0-.5517-.4475-.9993-.9997-.9993h-9.9942c-.5522 0-.9993.4476-.9993.9993 0 .5522.4471.9998.9993.9998z" fill="#180eff"/><path d="m49.3638 15.0273h-4.9969c-.5521 0-.9997.4476-.9997.9998 0 .5517.4476.9993.9997.9993h4.9973-.0004c.5521 0 .9997-.4476.9997-.9993 0-.5522-.4476-.9998-.9997-.9998z" fill="#180eff"/><path d="m39.3665 17.0264h.9993c.5521 0 .9997-.4476.9997-.9993 0-.5522-.4476-.9998-.9997-.9998h-.9993c-.5522 0-.9993.4476-.9993.9998 0 .5517.4471.9993.9993.9993z" fill="#180eff"/></svg>