<svg fill="none" height="56" viewBox="0 0 64 56" width="64" xmlns="http://www.w3.org/2000/svg" xmlns:xlink="http://www.w3.org/1999/xlink"><mask id="a" fill="#fff"><path clip-rule="evenodd" d="m43.8516 22.957 5.4706 4.2735v1.1971l-5.4706-4.2734z" fill="#fff" fill-rule="evenodd"/></mask><mask id="b" fill="#fff"><path clip-rule="evenodd" d="m43.8516 28.4258 5.4706 4.2734v1.1972l-5.4706-4.2735z" fill="#fff" fill-rule="evenodd"/></mask><mask id="c" fill="#fff"><path clip-rule="evenodd" d="m43.8516 33.8984 5.4706 4.2735v1.1971l-5.4706-4.2734z" fill="#fff" fill-rule="evenodd"/></mask><mask id="d" fill="#fff"><path clip-rule="evenodd" d="m43.8516 39.3672 5.4706 4.2734v1.1972l-5.4706-4.2735z" fill="#fff" fill-rule="evenodd"/></mask><mask id="e" fill="#fff"><path clip-rule="evenodd" d="m43.8516 44.8398 5.4706 4.9857v1.3967l-5.4706-4.9857z" fill="#fff" fill-rule="evenodd"/></mask><mask id="f" fill="#fff"><path clip-rule="evenodd" d="m24.707 14.75 8.2059 4.9855v1.3969l-8.2059-4.9855z" fill="#fff" fill-rule="evenodd"/></mask><mask id="g" fill="#fff"><path clip-rule="evenodd" d="m24.707 21.1328 8.2059 4.9855v1.3969l-8.2059-4.9855z" fill="#fff" fill-rule="evenodd"/></mask><mask id="h" fill="#fff"><path clip-rule="evenodd" d="m24.707 27.5156 8.2059 4.2733v1.1973l-8.2059-4.2732z" fill="#fff" fill-rule="evenodd"/></mask><mask id="i" fill="#fff"><path clip-rule="evenodd" d="m24.707 32.9844 8.2059 4.9854v1.3969l-8.2059-4.9854z" fill="#fff" fill-rule="evenodd"/></mask><mask id="j" fill="#fff"><path clip-rule="evenodd" d="m24.707 39.3672 8.2059 4.9854v1.3969l-8.2059-4.9854z" fill="#fff" fill-rule="evenodd"/></mask><mask id="k" fill="#fff"><path clip-rule="evenodd" d="m24.707 45.75 8.2059 4.2732v1.1974l-8.2059-4.2733z" fill="#fff" fill-rule="evenodd"/></mask><g stroke-linecap="round" stroke-linejoin="round" stroke-width="2"><path d="m42.0273 15.539 9.1177 6.0943.0001 33.2352" stroke="#180eff"/><path d="m35.6484 17.2126 6.3824-1.5798v39.2354" stroke="#141242"/><path d="m5.87527 40.2812c1.59582 0 2.7353 1.4223 2.7353 2.8446 0 .9482-.22819 1.6596-.68408 2.1337.91174.7114 1.36763 1.8964 1.36763 3.0819 0 2.1337-1.59582 3.7928-3.64706 3.7928-2.05168 0-3.64706-1.6596-3.64706-3.7928 0-1.4223.68407-2.6078 1.82348-3.3187-.45588-.4741-.68407-1.1855-.68407-1.8964 0-1.4222 1.36762-2.8446 2.73529-2.8446z" stroke="#180eff"/><path d="m5.64844 48.4844v6.3823" stroke="#180eff"/><path d="m58.8753 41.1919c1.5958 0 2.7353 1.0943 2.7353 2.6258 0 .6567-.2282 1.3128-.6841 1.7504.9117.6567 1.3676 1.7505 1.3676 3.0634 0 1.9696-1.5958 3.5011-3.647 3.5011-2.0517 0-3.6471-1.5319-3.6471-3.5011 0-1.3128.6841-2.6257 1.8235-3.2824-.4559-.4376-.6841-.8752-.6841-1.5319 0-1.5319 1.3676-2.6258 2.7353-2.6258z" stroke="#141242"/><path d="m58.6484 48.4844v6.3823" stroke="#141242"/></g><path clip-rule="evenodd" d="m43.8516 22.957 5.4706 4.2735v1.1971l-5.4706-4.2734z" fill="#000" fill-rule="evenodd"/><path d="m43.8516 22.957 1.2312-1.5761-3.2312-2.5241v4.1002zm5.4706 4.2735h2v-.9756l-.7688-.6005zm0 1.1971-1.2313 1.5761 3.2313 2.5241v-4.1002zm-5.4706-4.2734h-2v.9755l.7688.6006zm-1.2312.3789 5.4705 4.2735 2.4625-3.1522-5.4706-4.2735zm4.7018 2.6974v1.1971h4v-1.1971zm3.2312-.379-5.4706-4.2734-2.4624 3.1522 5.4705 4.2734zm-4.7018-2.6973v-1.1972h-4v1.1972z" fill="#141242" mask="url(#a)"/><path clip-rule="evenodd" d="m43.8516 28.4258 5.4706 4.2734v1.1972l-5.4706-4.2735z" fill="#000" fill-rule="evenodd"/><path d="m43.8516 28.4258 1.2312-1.5761-3.2312-2.5241v4.1002zm5.4706 4.2734h2v-.9755l-.7688-.6006zm0 1.1972-1.2313 1.5761 3.2313 2.5241v-4.1002zm-5.4706-4.2735h-2v.9756l.7688.6006zm-1.2312.379 5.4705 4.2734 2.4625-3.1522-5.4706-4.2734zm4.7018 2.6973v1.1972h4v-1.1972zm3.2312-.3789-5.4706-4.2735-2.4624 3.1523 5.4705 4.2734zm-4.7018-2.6974v-1.1971h-4v1.1971z" fill="#141242" mask="url(#b)"/><path clip-rule="evenodd" d="m43.8516 33.8984 5.4706 4.2735v1.1971l-5.4706-4.2734z" fill="#000" fill-rule="evenodd"/><path d="m43.8516 33.8984 1.2312-1.5761-3.2312-2.5241v4.1002zm5.4706 4.2735h2v-.9756l-.7688-.6005zm0 1.1971-1.2313 1.5761 3.2313 2.5241v-4.1002zm-5.4706-4.2734h-2v.9756l.7688.6005zm-1.2312.379 5.4705 4.2734 2.4625-3.1522-5.4706-4.2735zm4.7018 2.6973v1.1971h4v-1.1971zm3.2312-.379-5.4706-4.2734-2.4624 3.1522 5.4705 4.2734zm-4.7018-2.6973v-1.1972h-4v1.1972z" fill="#141242" mask="url(#c)"/><path clip-rule="evenodd" d="m43.8516 39.3672 5.4706 4.2734v1.1972l-5.4706-4.2735z" fill="#000" fill-rule="evenodd"/><path d="m43.8516 39.3672 1.2312-1.5761-3.2312-2.5241v4.1002zm5.4706 4.2734h2v-.9755l-.7688-.6006zm0 1.1972-1.2313 1.5761 3.2313 2.5241v-4.1002zm-5.4706-4.2735h-2v.9756l.7688.6006zm-1.2312.379 5.4705 4.2734 2.4625-3.1522-5.4706-4.2734zm4.7018 2.6973v1.1972h4v-1.1972zm3.2312-.3789-5.4706-4.2735-2.4624 3.1523 5.4705 4.2734zm-4.7018-2.6974v-1.1971h-4v1.1971z" fill="#141242" mask="url(#d)"/><path clip-rule="evenodd" d="m43.8516 44.8398 5.4706 4.9857v1.3967l-5.4706-4.9857z" fill="#000" fill-rule="evenodd"/><path d="m43.8516 44.8398 1.3471-1.4782-3.3471-3.0504v4.5286zm5.4706 4.9857h2v-.8832l-.6529-.595zm0 1.3967-1.3472 1.4782 3.3472 3.0505v-4.5287zm-5.4706-4.9857h-2v.8833l.6528.5949zm-1.3472.0816 5.4706 4.9856 2.6943-2.9564-5.4706-4.9857zm4.8178 3.5074v1.3967h4v-1.3967zm3.3471-.0815-5.4706-4.9857-2.6943 2.9564 5.4706 4.9857zm-4.8177-3.5075v-1.3967h-4v1.3967z" fill="#141242" mask="url(#e)"/><path d="m22.8828 1.13281 12.7647 8.46363v45.27166" stroke="#180eff" stroke-linecap="round" stroke-linejoin="round" stroke-width="2"/><path clip-rule="evenodd" d="m24.707 14.75 8.2059 4.9855v1.3969l-8.2059-4.9855z" fill="#000" fill-rule="evenodd"/><path d="m24.707 14.75 1.0385-1.7093-3.0385-1.846v3.5553zm8.2059 4.9855h2v-1.1251l-.9615-.5842zm0 1.3969-1.0384 1.7092 3.0384 1.846v-3.5552zm-8.2059-4.9855h-2v1.1251l.9616.5842zm-1.0384.3124 8.2059 4.9854 2.0769-3.4185-8.2059-4.9855zm7.2443 3.2762v1.3969h4v-1.3969zm3.0385-.3124-8.2059-4.9855-2.0769 3.4186 8.2059 4.9854zm-7.2444-3.2762v-1.3969h-4v1.3969z" fill="#141242" mask="url(#f)"/><path clip-rule="evenodd" d="m24.707 21.1328 8.2059 4.9855v1.3969l-8.2059-4.9855z" fill="#000" fill-rule="evenodd"/><path d="m24.707 21.1328 1.0385-1.7093-3.0385-1.846v3.5553zm8.2059 4.9855h2v-1.1251l-.9615-.5842zm0 1.3969-1.0384 1.7092 3.0384 1.846v-3.5552zm-8.2059-4.9855h-2v1.1251l.9616.5842zm-1.0384.3124 8.2059 4.9854 2.0769-3.4185-8.2059-4.9855zm7.2443 3.2762v1.3969h4v-1.3969zm3.0385-.3124-8.2059-4.9855-2.0769 3.4186 8.2059 4.9854zm-7.2444-3.2762v-1.3969h-4v1.3969z" fill="#141242" mask="url(#g)"/><path clip-rule="evenodd" d="m24.707 27.5156 8.2059 4.2733v1.1973l-8.2059-4.2732z" fill="#000" fill-rule="evenodd"/><path d="m24.707 27.5156.9238-1.7739-2.9238-1.5225v3.2964zm8.2059 4.2733h2v-1.2135l-1.0762-.5604zm0 1.1973-.9237 1.7739 2.9237 1.5226v-3.2965zm-8.2059-4.2732h-2v1.2134l1.0763.5605zm-.9237.5765 8.2059 4.2733 1.8475-3.5478-8.2059-4.2733zm7.1296 2.4994v1.1973h4v-1.1973zm2.9238-.5766-8.2059-4.2732-1.8475 3.5478 8.2059 4.2732zm-7.1297-2.4993v-1.1974h-4v1.1974z" fill="#141242" mask="url(#h)"/><path clip-rule="evenodd" d="m24.707 32.9844 8.2059 4.9854v1.3969l-8.2059-4.9854z" fill="#000" fill-rule="evenodd"/><path d="m24.707 32.9844 1.0385-1.7093-3.0385-1.846v3.5553zm8.2059 4.9854h2v-1.1251l-.9615-.5841zm0 1.3969-1.0384 1.7093 3.0384 1.846v-3.5553zm-8.2059-4.9854h-2v1.1251l.9616.5841zm-1.0384.3123 8.2059 4.9855 2.0769-3.4185-8.2059-4.9855zm7.2443 3.2762v1.3969h4v-1.3969zm3.0385-.3123-8.2059-4.9855-2.0769 3.4185 8.2059 4.9855zm-7.2444-3.2762v-1.3969h-4v1.3969z" fill="#141242" mask="url(#i)"/><path clip-rule="evenodd" d="m24.707 39.3672 8.2059 4.9854v1.3969l-8.2059-4.9854z" fill="#000" fill-rule="evenodd"/><path d="m24.707 39.3672 1.0385-1.7093-3.0385-1.846v3.5553zm8.2059 4.9854h2v-1.125l-.9615-.5842zm0 1.3969-1.0384 1.7093 3.0384 1.846v-3.5553zm-8.2059-4.9854h-2v1.1251l.9616.5842zm-1.0384.3124 8.2059 4.9854 2.0769-3.4185-8.2059-4.9855zm7.2443 3.2761v1.3969h4v-1.3969zm3.0385-.3123-8.2059-4.9855-2.0769 3.4186 8.2059 4.9854zm-7.2444-3.2762v-1.3969h-4v1.3969z" fill="#141242" mask="url(#j)"/><path clip-rule="evenodd" d="m24.707 45.75 8.2059 4.2732v1.1974l-8.2059-4.2733z" fill="#000" fill-rule="evenodd"/><path d="m24.707 45.75.9238-1.7739-2.9238-1.5225v3.2964zm8.2059 4.2732h2v-1.2134l-1.0762-.5604zm0 1.1974-.9237 1.7739 2.9237 1.5225v-3.2964zm-8.2059-4.2733h-2v1.2135l1.0763.5604zm-.9237.5766 8.2059 4.2732 1.8475-3.5477-8.2059-4.2733zm7.1296 2.4993v1.1974h4v-1.1974zm2.9238-.5765-8.2059-4.2732-1.8475 3.5477 8.2059 4.2733zm-7.1297-2.4994v-1.1973h-4v1.1973z" fill="#141242" mask="url(#k)"/><path d="m13.7656 54.8681v-51.67637l9.1177-2.05892v53.73509" stroke="#141242" stroke-linecap="round" stroke-linejoin="round" stroke-width="2"/><path d="m1 54.8672h62" stroke="#141242" stroke-linecap="round" stroke-linejoin="round" stroke-width="2"/></svg>