<svg fill="none" height="61" viewBox="0 0 58 61" width="58" xmlns="http://www.w3.org/2000/svg"><path clip-rule="evenodd" d="m57.5992 9.93191c.0038-2.29146-.3909-4.56662-1.1663-6.72381-.2799-.74954-1.0994-1.1467-1.8615-.90337-1.0666.35239-2.4131-.2799-3.8315-.94875-1.3913-.7716-2.9327-1.234314-4.5187-1.35598-1.5867.119145-3.1287.581233-4.5187 1.35598-1.4279.66885-2.7743 1.29231-3.8411.94875-.7621-.24333-1.5816.15381-1.8615.90337-.771 2.15848-1.165 4.43235-1.1663 6.72381v.99419c-6.0134-2.44288-12.7448-2.434-18.7525.0245-6.0078 2.4579-10.81392 7.1709-13.38974 13.1293-2.575817 5.9579-2.7163813 12.6873-.39211 18.7477l1.44646-1.3285c-1.97693-5.7177-1.62641-11.9832.97649-17.4438 2.60293-5.4611 7.2483-9.6796 12.9344-11.7455 5.6862-2.0658 11.9562-1.813 17.4583.7042.9034 5.6937 4.5187 10.4198 10.4294 13.4565.2067.1147.4406.174.6776.1721.2396.0006.476-.058.6865-.1721l.3613-.1898c.8705 2.4579 1.3143 5.0469 1.3106 7.655.0012 2.5518-.4203 5.0862-1.2474 7.5005l1.3827 1.3827c2.1522-5.6169 2.1932-11.8238.1172-17.4696 5.6755-3.597 8.7664-9.0094 8.7664-15.41739zm-18.2913 8.93859c1.7802 2.5204 4.1549 4.5628 6.9136 5.9466 2.7335-1.3908 5.0834-3.4333 6.841-5.9466 1.7999-2.6307 2.7467-5.7512 2.7114-8.93851.0025-1.9921-.324-3.97078-.967-5.85637-1.6432.39744-3.2778-.3687-4.8582-1.10945l-.0041-.00194c-1.1581-.64993-2.4378-1.05276-3.7597-1.18388-1.3214.13112-2.601.53458-3.7591 1.18451l-.0095.00445c-1.5787.73933-3.2114 1.50392-4.8528 1.10694-.643 1.88543-.9695 3.86364-.967 5.85574-.0353 3.18731.9116 6.30781 2.7114 8.93851z" fill="#202024" fill-rule="evenodd"/><path d="m18.9645 57.8929c4.3005 1.1808 8.8394 1.1814 13.1401.0007l-1.5093-1.5008c-3.3556.759-6.8385.759-10.1941 0z" fill="#202024"/><g fill="#180eff"><path d="m52.3834 11.0897c.4684-.1513.7293-.6493.5875-1.12026-.6676-2.14202-2.3097-3.84105-4.428-4.58115-2.1181-.73945-4.4614-.43245-6.3173.82771-1.8559 1.26017-3.0051 3.3248-3.0984 5.5664-.0932 2.2416.8801 4.3944 2.6251 5.8054 1.7444 1.4102 4.0541 1.9107 6.2258 1.3497 2.1723-.5611 3.9506-2.1175 4.7935-4.1966.1816-.4564-.0353-.9746-.4879-1.1656-.459-.1803-.9778.041-1.1656.4967-.6342 1.5458-1.9612 2.7012-3.5795 3.1155-1.6182.4148-3.3374.0404-4.6365-1.0105-1.2986-1.0503-2.0249-2.6528-1.958-4.322.0668-1.6693.9185-3.20875 2.2971-4.15186 1.3787-.94372 3.1224-1.17948 4.7022-.63733 1.5804.54278 2.8109 1.80038 3.3189 3.39159.1513.4684.6493.7294 1.1209.5875z"/><path d="m48.5622 9.91363-2.7114 2.75607-1.97-1.9246c-.1576-.21-.3978-.3411-.6594-.3594-.261-.0189-.5175.0769-.7029.2623-.1853.1853-.2812.4419-.2622.7029.0182.2616.1494.5018.3593.6594l2.5576 2.5576c.1683.167.3952.2609.6323.2622.237-.0013.4646-.0952.6329-.2622l3.389-3.362c.3385-.3505.3385-.9058 0-1.25635-.3518-.34419-.9141-.34419-1.2652 0z"/><path clip-rule="evenodd" d="m2.29808 42.8294-1.807313 1.8073c-.654356.6954-.654356 1.7809 0 2.4769l13.420533 13.3569c.6953.6544 1.7802.6544 2.4762 0l2.5759-2.5758 1.4366-1.5001.66-.66c.324-.331.5081-.7748.5144-1.2381-.0006-.4646-.1859-.9097-.515-1.2381l-1.1297-1.1297 4.7898-4.7898c.2175-.2156.4501-.4148.696-.5964l5.5217 5.5128-1.003 1.003c-.3335.3335-.5182.788-.5112 1.2595.0069.4716.2042.9204.5478 1.2438l-.0272.0001.6506.6329 1.5092 1.5008 2.5758 2.5758c.6954.6543 1.7802.6537 2.4763-.0007l5.115-5.115c.3442-.3511.3442-.9134 0-1.2652-.3505-.3385-.9059-.3385-1.2564 0l-5.0974 5.0879-4.6632-4.6542 13.3216-13.3121 4.6543 4.6543-5.2688 5.2776c-.3385.3499-.3385.9065 0 1.2564.3511.3448.9134.3448 1.2652 0l5.2959-5.2959c.6537-.6953.6537-1.7802 0-2.4763l-1.8073-1.8073-1.3827-1.3827-1.518-1.518c-.3291-.3304-.7766-.5169-1.2431-.5169-.4659 0-.9135.1859-1.2425.5162l-.3524.3524-1.4638-1.4549 3.6146-3.6146c.6418-.6393 1.0131-1.5004 1.0364-2.4056s-.302-1.7852-.9097-2.4567c-.6543-.6809-1.5596-1.0629-2.5033-1.0572h-.2352c.0524-.9809-.3158-1.9372-1.0124-2.63-.6505-.6443-1.5331-.9992-2.4491-.9854h-.1715c.0416-.9708-.3265-1.9144-1.013-2.6016-.6872-.6871-1.6308-1.0547-2.6017-1.013.0398-.8416-.2275-1.6694-.7527-2.3281-.5251-.6588-1.2721-1.1039-2.1016-1.2526-.829-.1488-1.6845.0094-2.4056.4444-.6512-.8788-1.68-1.3982-2.7743-1.4008h-4.6272c-.474-.0018-.9361.1469-1.3194.4249-1.0439-.2048-2.1244.0832-2.9283.7811-.8031.6972-1.24 1.726-1.1838 2.7888h-.1356c-.9191 0-1.8004.3644-2.451 1.0131-.6507.6486-1.0169 1.5293-1.0194 2.4485v.1809c-1.1914-.0549-2.3274.503-3.0114 1.4802-.68334.9771-.8195 2.2359-.3599 3.3361-.82839.1563-1.57163.6102-2.08978 1.2759-.51755.6657-.77476 1.4972-.72307 2.3387.05232.8422.40976 1.6359 1.00549 2.2329l2.27756 2.2776-2.40376 2.4131-.5245-.5245c-.32716-.3303-.77287-.5156-1.2381-.5156s-.91092.1853-1.23811.5156l-1.51799 1.518zm-.46076 3.0363 13.28498 13.3121 4.6813-4.6543-13.31202-13.312zm25.24108.0271 5.1245 5.1246 9.5068-9.4446-1.4549-1.4638-1.5634 1.5634c-.3518.3449-.9141.3449-1.2652 0-.3385-.3498-.3385-.9058 0-1.2557l6.4073-6.4169c.6582-.6418.6979-1.687.0902-2.3767-.3121-.3328-.7458-.5251-1.2016-.5333-.4469-.0214-.8838.1381-1.2109.4426-.3506.3391-.9059.3391-1.2564 0-.3442-.3511-.3442-.9135 0-1.2652.6499-.6551.6499-1.7122 0-2.3678-.314-.3171-.742-.4955-1.1883-.4955-.4464 0-.8744.1784-1.1883.4955-.3518.3448-.9141.3448-1.2652 0-.3449-.3511-.3449-.9135 0-1.2652.5837-.667.5497-1.6724-.0788-2.2978-.6278-.626-1.6334-.6562-2.2984-.07-.3512.3449-.9135.3449-1.2652 0-.3442-.3511-.3442-.9134 0-1.2652.636-.6594.6266-1.7071-.0215-2.3552-.6481-.648-1.6958-.6575-2.3552-.0214l-2.8563 2.8381 1.3106 1.3011c.6279.6173.9967 1.45 1.0313 2.3294.0353.8788-.2654 1.7387-.8415 2.4038-.5762.6657-1.3838 1.0862-2.2594 1.1776.0807.2944.1204.5982.1179.9033-.0095.914-.3795 1.7878-1.0294 2.4308s-1.5269 1.0036-2.4409 1.0036c-.4924-.0026-.9784-.1072-1.4279-.3077-.1337.6903-.4779 1.3213-.9853 1.808-.6486.6216-1.5142.9658-2.4132.9576-.5944-.0019-1.1787-.1545-1.6988-.4426-.1841.7552-.6166 1.4265-1.2274 1.9063-.6115.4803-1.3661.7413-2.1433.7413-.6045-.0006-1.199-.1563-1.726-.452l-2.48562 2.4763 9.18232 9.1729 4.7898-4.7898c1.5786-1.5773 3.7434-2.4258 5.9737-2.3407l1.6807.0908c1.163.0366 2.3141-.2477 3.3259-.8227.2067-.15.4677-.2061.718-.1532.2503.0524.4665.2087.5945.43.1286.2213.1576.486.0794.73-.0775.2433-.2553.4425-.4879.5478-1.303.7407-2.7864 1.1038-4.2842 1.0483l-1.6989-.063c-.7855-.0309-1.5703.0857-2.3136.3429zm-.9216-21.5083h-1.8073c-1.0648-.012-2.0816-.4426-2.8305-1.1985-.7495-.7564-1.1713-1.777-1.1732-2.8417v-.7048c-.3416.0504-.6587.2086-.904.452-.6512.6587-.6512 1.7185 0 2.3766l5.9106 5.9106c.6475.6746 1.7122.7187 2.4132.0997.3347-.3115.5302-.7445.5421-1.2022.0133-.4589-.1632-.904-.4879-1.2287zm-4.0667-4.6366v.5875c.0044 1.2457 1.0132 2.2543 2.2595 2.2593h1.7259l2.5663-2.5392c-.3032-.5043-.8485-.8126-1.4366-.8132h-4.6001c-.2811-.0006-.5106.2251-.515.5056zm3.1993 11.8117c.0013-.4488-.1733-.8807-.4879-1.2015l-6.6431-6.6154c-.6663-.5843-1.6724-.5497-2.2977.0782-.626.6278-.6563 1.634-.07 2.2984l6.6336 6.6336c.6562.6392 1.7027.6392 2.3589 0 .324-.312.5068-.7432.5062-1.1933zm-4.808 2.4497c.0019-.4494-.174-.8812-.488-1.2021l-5.4227-5.3957c-.3057-.3492-.7432-.5566-1.2072-.5724-.4646-.0157-.9147.1614-1.2438.4892-.329.3278-.5081.7773-.4936 1.2419.0139.464.2188.9021.5674 1.2091l5.4227 5.4228c.6544.6442 1.7046.6442 2.359 0 .3259-.3108.5087-.7426.5062-1.1928zm-5.567 1.0118-2.9011-2.9099-.027.027c-.6601-.6361-1.7072-.6267-2.35521.0214-.64805.6481-.65751 1.6958-.02144 2.3552l2.90985 2.9012c.3127.3196.7414.4999 1.1883.4999.447 0 .8757-.1803 1.1883-.4999.3272-.3146.5125-.7483.5151-1.2016.0044-.4488-.1753-.88-.4968-1.1933z" fill-rule="evenodd"/></g></svg>