<svg fill="none" height="31" viewBox="0 0 126 31" width="126" xmlns="http://www.w3.org/2000/svg"><g fill="#fff"><path d="m74.2322 11.9001c1.9396 0 3.7768 1.1843 4.1609 3.7512h-8.6355c.3585-2.2533 2.0421-3.7512 4.4746-3.7512zm3.8856 7.5345c-.6593 1.0306-1.9332 1.818-3.6808 1.818-2.4069 0-4.2377-1.3187-4.6794-3.6424h10.8312c.0512-.3329.0768-.6722.0768-1.0051 0-3.6168-2.5286-6.82385-6.4398-6.82385-4.0329 0-6.7727 2.97025-6.7727 6.79825 0 3.8729 2.7654 6.7983 6.9263 6.7983 2.5862 0 4.5514-1.165 5.6845-2.9254z"/><path d="m66.3914 4.16406h-2.2469v18.87134h2.2469z"/><path d="m93.1826 15.1008v7.9377h-2.2469v-7.8097c0-2.1188-1.2163-3.3095-3.2071-3.3095-2.0677 0-3.7512 1.2163-3.7512 4.2633v6.8495h-2.2469v-12.918h2.2469v1.8628c.9538-1.5235 2.3813-2.19565 4.1929-2.19565 3.0214 0 5.0123 2.01645 5.0123 5.31955z"/><path d="m105.58 16.57c0-2.6374-1.991-4.6282-4.602-4.6282-2.5865 0-4.5774 1.9908-4.5774 4.6282 0 2.6373 1.9909 4.6282 4.5774 4.6282 2.611 0 4.602-1.9909 4.602-4.6282zm2.254-12.40594v18.87134h-2.247v-2.2213c-1.037 1.5811-2.689 2.5606-4.885 2.5606-3.5908 0-6.5418-2.9767-6.5418-6.7983 0-3.8281 2.9446-6.79831 6.5418-6.79831 2.196 0 3.854.97941 4.885 2.56051v-8.17454z"/><path d="m111.891 4.16406h-2.246v18.87134h2.246z"/><path d="m60.1374 16.5731c0-2.6373-1.9908-4.6282-4.6026-4.6282-2.5861 0-4.577 1.9909-4.577 4.6282 0 2.6374 1.9909 4.6282 4.577 4.6282 2.6118 0 4.6026-1.9908 4.6026-4.6282zm2.2469-6.459v12.9244h-2.2469v-2.2212c-1.037 1.5811-2.6886 2.5605-4.8842 2.5605-3.5912 0-6.5423-2.9766-6.5423-6.7983 0-3.828 2.9511-6.79825 6.5423-6.79825 2.1956 0 3.8536.97945 4.8842 2.56055v-2.2213h2.2469z"/><path d="m45.3758 20.5544c-3.6296 1.3379-7.6497-.5185-8.9876-4.1417-1.3379-3.6296.5185-7.6497 4.1417-8.98759 2.3365-.86419 4.9483-.41609 6.8687 1.16505.3969.32648.7554.69775 1.069 1.10104l1.9461-1.42111c-3.1623-4.1353-9.0772-4.92267-13.2061-1.76038-4.1353 3.16229-4.9227 9.07719-1.7604 13.20609s9.0772 4.9227 13.2061 1.7604c.0128-.0128.0256-.0192.0448-.032l-1.2931-2.0485c-.6145.4865-1.2931.8834-2.0292 1.1587z"/><path d="m122.749 10.1094v7.336c0 2.3749-1.383 3.8728-3.489 3.8728s-3.63-1.5043-3.63-3.8728v-7.336h-2.278v7.1183c0 3.7256 2.323 6.1518 5.908 6.1518 3.098 0 3.585-1.9589 3.585-2.0101v2.6374c0 2.6118-1.14 4.0905-3.508 4.0905-1.754.0064-3.239-1.2803-3.482-3.0215l-2.036.7106c.602 2.5606 2.887 4.3721 5.518 4.3657 3.681 0 5.691-2.4197 5.691-6.1517v-13.891z"/></g><path d="m18.3355 17.6383c-.8642.7682-1.946 1.722-3.8985 1.722h-1.1714c-1.4147 0-2.7014-.5121-3.62322-1.4467-.9026-.909-1.3955-2.1573-1.3955-3.5144v-1.6003c0-1.3571.49931-2.6054 1.3955-3.51438.92182-.9346 2.20852-1.44671 3.62322-1.44671h1.1714c1.9589 0 3.0343.95381 3.8985 1.72197.8962.79382 1.6707 1.48512 3.7384 1.48512.3137 0 .6273-.0256.941-.0768l-.0064-.0192c-.1216-.3073-.2689-.6017-.4353-.8898l-1.3827-2.38773c-1.2675-2.19567-3.604-3.54637-6.1389-3.54637h-2.759c-2.53499 0-4.8715 1.3507-6.13898 3.54637l-1.3827 2.38773c-1.26748 2.1957-1.26748 4.8971 0 7.0863l1.3827 2.3878c1.26748 2.1956 3.60399 3.5463 6.13898 3.5463h2.759c2.5285 0 4.8714-1.3507 6.1389-3.5463l1.3827-2.3878c.1664-.288.3137-.5825.4353-.8898l.0064-.0192c-.3137-.0512-.6273-.0768-.941-.0768-2.0613 0-2.8358.685-3.7384 1.4787z" fill="#006bff"/><path d="m14.4387 9.29688h-1.1714c-2.1573 0-3.57199 1.54272-3.57199 3.50792v1.6004c0 1.9716 1.41469 3.508 3.57199 3.508h1.1714c3.1431 0 2.8935-3.2007 7.6369-3.2007.4481 0 .8962.0384 1.3379.1216.1408-.813.1408-1.6452 0-2.4646-.4417.0833-.8898.1217-1.3379.1217-4.7434.0064-4.4938-3.19432-7.6369-3.19432z" fill="#006bff"/><path d="m26.1384 16.0033c-.8065-.5889-1.7411-.9922-2.727-1.1714v.0256c-.0832.4737-.2176.9346-.3968 1.3827.8129.128 1.5875.4417 2.2533.9282 0 .0064-.0065.0128-.0065.0192-1.978 6.4078-8.7763 9.999-15.1841 8.0209-6.40776-1.9844-9.9925365-8.7827-8.01451-15.1905 1.97804-6.40137 8.77631-9.9925455 15.18411-8.01451 3.8344 1.18425 6.8367 4.18651 8.021 8.02091 0 .0064.0064.0128.0064.0192-.6658.4801-1.4404.8002-2.2533.9282.1792.4481.3136.909.3968 1.3827v.0256c.9859-.1792 1.9141-.5761 2.727-1.1714.7746-.5761.6274-1.22268.5058-1.60676-2.2149-7.18237-9.8326-11.20884-17.01495-8.993959-7.18877 2.202079-11.21525 9.826119-9.000367 17.008519 2.214887 7.1824 9.832517 11.2088 17.014917 8.9939 4.3017-1.325 7.6689-4.6922 8.994-8.9939.1216-.3841.2688-1.037-.5058-1.6132z" fill="#006bff"/><path d="m23.0155 10.9754c-.3136.0513-.6273.0769-.941.0769-2.0612 0-2.8358-.685-3.732-1.47876-.8642-.76817-1.9396-1.72198-3.8984-1.72198h-1.1715c-1.4147 0-2.7014.51212-3.62319 1.44672-.9026.90902-1.3955 2.15722-1.3955 3.51432v1.6004c0 1.3571.4929 2.599 1.3955 3.5144.92179.9346 2.20849 1.4467 3.62319 1.4467h1.1715c1.9588 0 3.0342-.9538 3.8984-1.722.8962-.7938 1.6708-1.4787 3.732-1.4787.3137 0 .6274.0256.941.0768.1793-.4417.3137-.909.3969-1.3763 0-.0064 0-.0128 0-.0256-.4417-.0832-.8898-.1216-1.3379-.1216-4.7434 0-4.4938 3.2007-7.6368 3.2007h-1.1715c-2.1573 0-3.57198-1.5428-3.57198-3.508v-1.6068c0-1.9716 1.41468-3.50792 3.57198-3.50792h1.1715c3.143 0 2.8934 3.20072 7.6368 3.20072.4481 0 .8962-.0384 1.3379-.1216v-.0193c-.0896-.4865-.2176-.9474-.3969-1.3891z" fill="#0ae8f0"/><path d="m23.0155 10.9754c-.3136.0513-.6273.0769-.941.0769-2.0612 0-2.8358-.685-3.732-1.47876-.8642-.76817-1.9396-1.72198-3.8984-1.72198h-1.1715c-1.4147 0-2.7014.51212-3.62319 1.44672-.9026.90902-1.3955 2.15722-1.3955 3.51432v1.6004c0 1.3571.4929 2.599 1.3955 3.5144.92179.9346 2.20849 1.4467 3.62319 1.4467h1.1715c1.9588 0 3.0342-.9538 3.8984-1.722.8962-.7938 1.6708-1.4787 3.732-1.4787.3137 0 .6274.0256.941.0768.1793-.4417.3137-.909.3969-1.3763 0-.0064 0-.0128 0-.0256-.4417-.0832-.8898-.1216-1.3379-.1216-4.7434 0-4.4938 3.2007-7.6368 3.2007h-1.1715c-2.1573 0-3.57198-1.5428-3.57198-3.508v-1.6068c0-1.9716 1.41468-3.50792 3.57198-3.50792h1.1715c3.143 0 2.8934 3.20072 7.6368 3.20072.4481 0 .8962-.0384 1.3379-.1216v-.0193c-.0896-.4865-.2176-.9474-.3969-1.3891z" fill="#0ae8f0"/></svg>