<svg fill="none" height="28" viewBox="0 0 28 28" width="28" xmlns="http://www.w3.org/2000/svg"><circle cx="13.5835" cy="14.0757" fill="#20a0e1" r="13.4429"/><g clip-rule="evenodd" fill-rule="evenodd"><path d="m16.7068 11.1056c.0945-.1891.2836-.1891.2836-.4728-.3782 0-.6618.2837-.8509.3782l-6.33481 3.9711 1.22911 3.8765c.1891-.1891.1891-.3782.1891-.7564 0-.1891.0946-.5673.0946-.7564v-.6619c.0945-.0945.0945-.1891.0945-.3782 0-.0945 0-.1891 0-.2836.0946-.1891.1891-.0945.2837-.2836 1.4182-1.5128 3.4037-3.2147 5.0111-4.6329z" fill="#ccd8e6"/><path d="m6.68546 13.8438 3.12011 1.1346 6.61843-4.1601c.1891-.0946.3782-.1891.5673-.1891 0 .2836-.3782.5673-.5673.7564-1.4182 1.2291-3.782 3.0255-5.0111 4.4438l1.1346.8509c.1891 0 .6618.4728.7564.5673.1891.0946.9455.6618 1.04.8509.1891 0 .1891.0946.2837.1891l.9455.6619c.3782.2836.7563.7564 1.4182.2836l2.0801-9.45486c.2836-1.60733-.4728-1.32368-1.5128-.94549l-10.5895 4.25475c-.37819.189-.75639.6618-.28364.7563z" fill="#fefefe"/><path d="m11.0352 18.8537.0945.0945c.1891 0 .3782-.0945.5673-.2836l1.6073-1.4182c-.0945-.0946-.5673-.5673-.7564-.5673l-1.1345-.851z" fill="#abbdd5"/></g></svg>