<svg fill="none" height="28" viewBox="0 0 28 28" width="28" xmlns="http://www.w3.org/2000/svg"><path d="m26.2501 16.9443c.194-.8798.2969-1.7893.2969-2.7249 0-7.01128-5.7637-12.69644-12.8754-12.69644-.7499 0-1.4856.06413-2.201.18562-1.1506-.715397-2.51222-1.130455-3.97164-1.130455-4.12528 0-7.46771 3.296835-7.46771 7.364755 0 1.35823.375396 2.63042 1.02583 3.72462-.171249.8242-.260674 1.6779-.260674 2.5519 0 7.0139 5.763644 12.4873 12.874494 12.4873.8057 0 1.5936-.0734 2.3571-.2126 1.052.5567 2.2533 1.084 3.5305 1.084 4.1245 0 7.4669-3.296 7.4669-7.3639 0-1.1734-.2793-2.2845-.7753-3.2699z" fill="#00aff0"/><path d="m19.5425 19.3997c-.4969.7061-1.2242 1.2612-2.1816 1.6602-.9575.4024-2.0913.6015-3.4031.6015-1.5733 0-2.8709-.2734-3.8942-.8208-.72382-.3931-1.31346-.9196-1.76734-1.5759-.45222-.6564-.67907-1.2958-.67907-1.9176 0-.3594.13585-.6682.40746-.9238.27161-.259.61837-.3864 1.03769-.3864.34083 0 .63014.0987.86468.3004.23618.2.43788.496.60318.89.2033.4682.4218.8588.6589 1.1717.2345.313.5669.5728.9937.7761.4286.2017.9913.3045 1.6864.3045.9567 0 1.7345-.2041 2.3335-.615.5972-.4091.8975-.9229.8975-1.5362 0-.486-.162-.8833-.4842-1.1845-.3232-.3037-.7399-.5357-1.2512-.6951-.5104-.1612-1.1937-.3316-2.0508-.5113-1.1448-.2454-2.104-.5357-2.875-.8646-.77191-.3316-1.38602-.7812-1.83824-1.3507-.45388-.5719-.67999-1.2805-.67999-2.1267 0-.80815.23871-1.52437.71789-2.15118.47835-.62763 1.16928-1.10932 2.07694-1.44682.906-.3374 1.9725-.50531 3.1965-.50531.9786 0 1.8255.11222 2.5401.33406.7146.22445 1.306.52135 1.7766.89174.4716.3704.8166.7584 1.0335 1.16586.2176.40495.3264.80481.3264 1.18945 0 .3535-.135.6741-.4066.9567-.2716.2835-.6108.426-1.0166.426-.3704 0-.6512-.0861-.8436-.2556-.1924-.1704-.4007-.4487-.6243-.836-.2911-.55342-.6377-.98534-1.0444-1.29494-.4066-.31044-1.0579-.46566-1.9572-.46566-.8326 0-1.5059.16708-2.0171.50532-.5112.33573-.7677.74236-.7677 1.21558 0 .2919.0886.5467.2615.7601.173.2151.4126.3965.7188.5492.3028.1536.6116.2734.9229.3619.3112.0869.8267.2126 1.5455.3797.8975.1932 1.7116.4074 2.4406.6403.728.2337 1.3489.518 1.8602.8495.5104.334.9102.7575 1.1962 1.2688.286.5096.4303 1.1346.4303 1.8754.0002.8859-.2494 1.6831-.7447 2.3901z" fill="#fff"/></svg>