<svg fill="none" height="40" viewBox="0 0 164 40" width="164" xmlns="http://www.w3.org/2000/svg"><g fill="#141242"><path d="m97.1382 15.9543c2.5185 0 4.9038 1.5377 5.4028 4.8708h-11.2128c.4655-2.9258 2.6515-4.8708 5.81-4.8708zm5.0448 9.7831c-.856 1.3382-2.5097 2.3605-4.7788 2.3605-3.1253 0-5.5025-1.7122-6.076-4.7294h14.0638c.066-.4322.1-.8727.1-1.305 0-4.6961-3.284-8.8604-8.3621-8.8604-5.2365 0-8.794 3.8567-8.794 8.8272 0 5.0287 3.5908 8.8272 8.9935 8.8272 3.3576 0 5.9096-1.5128 7.3806-3.7985z"/><path d="m86.9565 5.91406h-2.9174v24.50334h2.9174z"/><path d="m121.753 20.1103v10.3067h-2.918v-10.1405c0-2.7512-1.579-4.2972-4.164-4.2972-2.685 0-4.871 1.5792-4.871 5.5357v8.8936h-2.917v-16.7733h2.917v2.4188c1.239-1.9782 3.092-2.851 5.445-2.851 3.923 0 6.508 2.6183 6.508 6.9072z"/><path d="m137.852 22.0224c0-3.4245-2.585-6.0094-5.976-6.0094-3.358 0-5.943 2.5849-5.943 6.0094s2.585 6.0095 5.943 6.0095c3.391 0 5.976-2.585 5.976-6.0095zm2.926-16.10834v24.50334h-2.918v-2.8842c-1.346 2.053-3.491 3.3247-6.342 3.3247-4.663 0-8.495-3.865-8.495-8.8272 0-4.9705 3.824-8.8271 8.495-8.8271 2.851 0 5.004 1.2717 6.342 3.3247v-10.61424z"/><path d="m146.05 5.91406h-2.917v24.50334h2.917z"/><path d="m78.8366 22.022c0-3.4245-2.5849-6.0095-5.9762-6.0095-3.358 0-5.9429 2.585-5.9429 6.0095s2.5849 6.0094 5.9429 6.0094c3.3913 0 5.9762-2.5849 5.9762-6.0094zm2.9175-8.3867v16.7817h-2.9175v-2.8843c-1.3465 2.0531-3.4909 3.3248-6.3419 3.3248-4.6629 0-8.4947-3.865-8.4947-8.8272 0-4.9705 3.8318-8.8272 8.4947-8.8272 2.851 0 5.0037 1.2717 6.3419 3.3248v-2.8842h2.9175z"/><path d="m59.6755 27.1919c-4.7128 1.7372-9.9327-.6733-11.6698-5.3778-1.7372-4.7128.6732-9.9326 5.3777-11.6698 3.0338-1.12211 6.4251-.54028 8.9186 1.5127.5154.4239.9808.906 1.3881 1.4297l2.5268-1.8452c-4.106-5.3695-11.7862-6.39185-17.1473-2.2858-5.3695 4.106-6.3918 11.7862-2.2858 17.1473 4.1061 5.3612 11.7862 6.3918 17.1474 2.2858.0166-.0166.0332-.025.0581-.0416l-1.679-2.6598c-.7979.6317-1.679 1.1471-2.6348 1.5045z"/><path d="m160.147 13.6328v9.5254c0 3.0837-1.795 5.0287-4.53 5.0287-2.734 0-4.713-1.9533-4.713-5.0287v-9.5254h-2.959v9.2428c0 4.8375 3.018 7.9877 7.672 7.9877 4.023 0 4.655-2.5435 4.655-2.61v3.4245c0 3.3913-1.48 5.3113-4.555 5.3113-2.278.0083-4.206-1.6624-4.522-3.9232l-2.643.9226c.781 3.3248 3.749 5.677 7.165 5.6687 4.779 0 7.389-3.1419 7.389-7.9877v-18.0367z"/></g><path d="m24.5502 23.4057c-1.1221.9974-2.5268 2.2359-5.0619 2.2359h-1.5211c-1.8369 0-3.5075-.665-4.7045-1.8785-1.1719-1.1803-1.8119-2.8011-1.8119-4.5632v-2.078c0-1.7621.6483-3.3829 1.8119-4.5632 1.197-1.2135 2.8676-1.8785 4.7045-1.8785h1.5211c2.5434 0 3.9398 1.2385 5.0619 2.2359 1.1637 1.0307 2.1694 1.9284 4.8541 1.9284.4073 0 .8146-.0333 1.2219-.0998l-.0083-.0249c-.158-.399-.3491-.7813-.5652-1.1553l-1.7954-3.1004c-1.6457-2.85092-4.6796-4.60472-7.971-4.60472h-3.5825c-3.2914 0-6.3253 1.7538-7.97101 4.60472l-1.79536 3.1004c-1.64574 2.8509-1.64574 6.3585 0 9.2012l1.79536 3.1003c1.64571 2.851 4.67961 4.6048 7.97101 4.6048h3.5825c3.2831 0 6.3253-1.7538 7.971-4.6048l1.7954-3.1003c.2161-.3741.4072-.7564.5652-1.1554l.0083-.0249c-.4073-.0665-.8146-.0998-1.2219-.0998-2.6764 0-3.6821.8894-4.8541 1.9201z" fill="#006bff"/><path d="m19.4872 12.5703h-1.5211c-2.8011 0-4.638 2.0032-4.638 4.5549v2.078c0 2.56 1.8369 4.5549 4.638 4.5549h1.5211c4.0811 0 3.757-4.156 9.916-4.156.5819 0 1.1637.0499 1.7372.158.1829-1.0556.1829-2.1362 0-3.2001-.5735.108-1.1553.1579-1.7372.1579-6.159.0083-5.8349-4.1476-9.916-4.1476z" fill="#006bff"/><path d="m34.685 21.2794c-1.0473-.7647-2.2608-1.2883-3.5408-1.5211v.0333c-.1081.6151-.2826 1.2135-.5154 1.7953 1.0556.1663 2.0614.5736 2.9258 1.2053 0 .0083-.0083.0166-.0083.0249-2.5684 8.3202-11.3956 12.9831-19.7157 10.4147-8.32016-2.5766-12.974794-11.4038-10.40643-19.724 2.56835-8.31181 11.39553-12.974749 19.71573-10.40639 4.9787 1.53769 8.877 5.43594 10.4147 10.41469 0 .0084.0083.0167.0083.025-.8644.6234-1.8702 1.039-2.9258 1.2052.2328.5818.4073 1.1803.5154 1.7954v.0332c1.28-.2327 2.4852-.7481 3.5408-1.5211 1.0057-.748.8146-1.5875.6567-2.0862-2.8759-9.32592-12.767-14.55407-22.0929-11.67817-9.33422 2.85927-14.56237 12.75867-11.68648 22.08457 2.8759 9.3259 12.76698 14.554 22.09288 11.6781 5.5856-1.7205 9.9576-6.0925 11.6781-11.6781.158-.4987.3491-1.3465-.6566-2.0946z" fill="#006bff"/><path d="m30.6359 14.7437c-.4073.0665-.8146.0997-1.2219.0997-2.6764 0-3.6821-.8893-4.8458-1.92-1.1221-.9974-2.5185-2.2359-5.0619-2.2359h-1.5211c-1.8369 0-3.5076.6649-4.7045 1.8785-1.1719 1.1803-1.8119 2.8011-1.8119 4.5632v2.0779c0 1.7621.64 3.3746 1.8119 4.5632 1.1969 1.2136 2.8676 1.8785 4.7045 1.8785h1.5211c2.5434 0 3.9398-1.2385 5.0619-2.2359 1.1637-1.0306 2.1694-1.92 4.8458-1.92.4073 0 .8146.0332 1.2219.0997.2327-.5735.4072-1.1802.5153-1.787 0-.0083 0-.0166 0-.0333-.5735-.108-1.1553-.1579-1.7372-.1579-6.1591 0-5.8349 4.1559-9.916 4.1559h-1.5211c-2.8011 0-4.638-2.0031-4.638-4.5548v-2.0863c0-2.5601 1.8369-4.5549 4.638-4.5549h1.5211c4.0811 0 3.7569 4.1559 9.916 4.1559.5819 0 1.1637-.0499 1.7372-.1579v-.0249c-.1164-.6317-.2826-1.2302-.5153-1.8037z" fill="#0ae8f0"/><path d="m30.6359 14.7437c-.4073.0665-.8146.0997-1.2219.0997-2.6764 0-3.6821-.8893-4.8458-1.92-1.1221-.9974-2.5185-2.2359-5.0619-2.2359h-1.5211c-1.8369 0-3.5076.6649-4.7045 1.8785-1.1719 1.1803-1.8119 2.8011-1.8119 4.5632v2.0779c0 1.7621.64 3.3746 1.8119 4.5632 1.1969 1.2136 2.8676 1.8785 4.7045 1.8785h1.5211c2.5434 0 3.9398-1.2385 5.0619-2.2359 1.1637-1.0306 2.1694-1.92 4.8458-1.92.4073 0 .8146.0332 1.2219.0997.2327-.5735.4072-1.1802.5153-1.787 0-.0083 0-.0166 0-.0333-.5735-.108-1.1553-.1579-1.7372-.1579-6.1591 0-5.8349 4.1559-9.916 4.1559h-1.5211c-2.8011 0-4.638-2.0031-4.638-4.5548v-2.0863c0-2.5601 1.8369-4.5549 4.638-4.5549h1.5211c4.0811 0 3.7569 4.1559 9.916 4.1559.5819 0 1.1637-.0499 1.7372-.1579v-.0249c-.1164-.6317-.2826-1.2302-.5153-1.8037z" fill="#0ae8f0"/></svg>