<svg fill="none" height="28" viewBox="0 0 27 28" width="27" xmlns="http://www.w3.org/2000/svg" xmlns:xlink="http://www.w3.org/1999/xlink"><clipPath id="a"><path d="m0 .648438h26.1413v26.8674h-26.1413z"/></clipPath><circle cx="13.5" cy="13.1484" fill="#fff" r="11.5"/><g clip-path="url(#a)"><path clip-rule="evenodd" d="m13.0669.648438c-7.20566 0-13.0669 6.025732-13.0669 13.433562 0 2.9379.92183 5.6625 2.48887 7.874l-1.628609 4.9911 5.023949-1.6503c2.06634 1.4058 4.53219 2.2191 7.19019 2.2191 7.2057 0 13.0669-6.026 13.0669-13.4336 0-7.40789-5.8612-13.43364-13.0669-13.43364h-.0075zm-3.64904 6.823672c-.25344-.62386-.44553-.64748-.82948-.66353-.13073-.0078-.27642-.01559-.43794-.01559-.49951 0-1.02178.15-1.3368.48165-.38395.40276-1.33659 1.34244-1.33659 3.26956 0 1.927 1.36738 3.7908 1.55166 4.0516.19208.2603 2.66578 4.2723 6.50659 5.9074 3.0036 1.2794 3.8949 1.1608 4.5785 1.0108.9986-.2211 2.2508-.9796 2.5658-1.8954.315-.9163.315-1.6982.2227-1.8641-.0922-.1658-.3458-.2603-.7298-.458-.3839-.1975-2.2508-1.1452-2.6042-1.2716-.3458-.1341-.676-.0867-.937.2925-.3688.5291-.7298 1.0663-1.0218 1.3899-.2305.2528-.6071.2844-.9218.15-.4226-.1814-1.6054-.6083-3.0652-1.9429-1.1293-1.0344-1.89742-2.3216-2.12008-2.7085-.22287-.3948-.023-.6241.15347-.8372.19209-.2449.37641-.4186.56851-.6477.1921-.2289.2996-.3475.4225-.6161.1308-.2605.0384-.5291-.0538-.7266-.0921-.1974-.86023-2.12453-1.17524-2.90619z" fill="#139c17" fill-rule="evenodd"/></g></svg>